<svg width="14" height="14" viewBox="0 0 14 14" fill="none" xmlns="http://www.w3.org/2000/svg">
<path d="M13.6667 6.778C13.6667 3.09799 10.68 0.111328 7.00004 0.111328C3.32004 0.111328 0.333374 3.09799 0.333374 6.778C0.333374 10.458 3.32004 13.4447 7.00004 13.4447C10.68 13.4447 13.6667 10.458 13.6667 6.778ZM6.78004 10.278C6.50671 10.278 6.28004 10.0513 6.28004 9.778C6.28004 9.50466 6.50671 9.278 6.78004 9.278H8.79337L3.64671 4.13133C3.54671 4.03133 3.50004 3.90466 3.50004 3.77799C3.50004 3.65133 3.54671 3.52466 3.64671 3.42466C3.84004 3.23133 4.16004 3.23133 4.35337 3.42466L9.50004 8.57133V6.55799C9.50004 6.28466 9.72671 6.05799 10 6.05799C10.2734 6.05799 10.5 6.28466 10.5 6.55799V9.778C10.5 10.0513 10.2734 10.278 10 10.278H6.78004Z" fill="#9787FF"/>
</svg>
