<svg width="1440" height="165" viewBox="0 0 1440 165" fill="none" xmlns="http://www.w3.org/2000/svg">
<path d="M1502.96 70.4523C1502.76 69.6677 1501.9 69.1737 1501.01 69.348L1326.01 103.993V97.4141H1304.51V104.714L1074.83 40.1022V29.0594H1053.33V40.5148L839.398 150.332V145.177H817.893V149.914L563.982 13.1114V0.90625H542.478V10.9668L310.013 122.905V117.012H288.508V124.167L-7.73866 14.1634C-8.56801 13.8553 -9.52796 14.204 -9.87407 14.9422C-10.2202 15.6803 -9.82836 16.5346 -8.99901 16.8427L288.515 127.317V136.151H310.019V126.212L542.478 14.2738V20.0451H563.982V16.5114L817.9 153.314V164.316H839.404V153.691L1053.34 43.8858V48.2099H1074.85V43.1593L1304.51 107.765V116.553H1326.02V106.975L1501.73 72.1901C1502.6 72.0099 1503.16 71.2311 1502.96 70.4523Z" fill="#666666" fill-opacity="0.16"/>
</svg>
