<svg width="102" height="88" viewBox="0 0 102 88" fill="none" xmlns="http://www.w3.org/2000/svg">
<path d="M20.6898 71.6283C20.4644 71.8155 20.2931 72.0169 20.176 72.2326C20.0548 72.4432 19.9922 72.694 19.9883 72.9849C19.9844 73.2758 20.0438 73.6327 20.1664 74.0556C20.2798 74.4776 20.4614 74.9868 20.7112 75.5833C20.9834 76.2373 21.2048 76.8658 21.3754 77.4688C21.5368 78.071 21.6224 78.6429 21.6322 79.1848C21.6371 79.7308 21.544 80.2353 21.3531 80.6985C21.1572 81.1657 20.8338 81.5865 20.3829 81.9608C19.9371 82.3309 19.4545 82.575 18.9349 82.6933C18.4112 82.8065 17.8732 82.8005 17.3207 82.6753C16.7591 82.5492 16.2082 82.3085 15.6678 81.9532C15.1225 81.6021 14.6107 81.1385 14.1325 80.5625C13.4588 79.751 13.029 78.9274 12.843 78.0918C12.6528 77.2512 12.6797 76.4631 12.9237 75.7275C13.1634 74.9869 13.5889 74.363 14.2 73.8556L15.7532 75.7266C15.3926 76.026 15.1389 76.3677 14.9924 76.7517C14.8366 77.1349 14.8075 77.5483 14.905 77.9919C14.9984 78.4305 15.2405 78.8853 15.6314 79.3561C16.0015 79.802 16.3769 80.1165 16.7575 80.2998C17.1381 80.483 17.5039 80.5517 17.8549 80.5056C18.206 80.4596 18.5267 80.316 18.8173 80.0748C19.0226 79.9043 19.171 79.7008 19.2623 79.4642C19.3486 79.2318 19.3833 78.9576 19.3663 78.6417C19.3444 78.3299 19.2734 77.9742 19.1533 77.5747C19.0331 77.1752 18.8644 76.7273 18.6469 76.2309C18.324 75.475 18.0857 74.7802 17.9318 74.1464C17.7729 73.5168 17.7065 72.9373 17.7325 72.4081C17.7585 71.8788 17.8844 71.3935 18.1103 70.9521C18.3312 70.5149 18.662 70.1133 19.1029 69.7473C19.5637 69.3648 20.0564 69.1123 20.5809 68.9899C21.1005 68.8716 21.634 68.8772 22.1814 69.0066C22.7196 69.1352 23.2585 69.3817 23.798 69.7461C24.3283 70.1097 24.8367 70.5845 25.3233 71.1706C25.7599 71.6966 26.1202 72.2732 26.4041 72.9006C26.6838 73.523 26.8535 74.1606 26.9132 74.8134C26.9678 75.4703 26.8816 76.1004 26.6546 76.7034C26.4225 77.3107 26.016 77.8555 25.4349 78.3379L23.8692 76.4519C24.2249 76.1567 24.478 75.845 24.6287 75.5168C24.7752 75.1837 24.8371 74.8403 24.8144 74.4869C24.7867 74.1375 24.6899 73.7864 24.5238 73.4335C24.3536 73.0756 24.1292 72.7288 23.8505 72.3932C23.4846 71.9524 23.1163 71.6362 22.7457 71.4446C22.371 71.248 22.0085 71.1682 21.6584 71.205C21.3082 71.2419 20.9854 71.383 20.6898 71.6283Z" fill="#FAFAFA"/>
<path d="M19.5486 59.8411C19.7897 60.5842 19.8869 61.2953 19.8403 61.9743C19.7855 62.6492 19.6066 63.2685 19.3035 63.8322C18.9984 64.3898 18.5848 64.8765 18.0627 65.2923C17.5405 65.7081 16.9357 66.0275 16.2484 66.2506L15.8768 66.3711C15.0903 66.6263 14.341 66.7428 13.6288 66.7206C12.9167 66.6984 12.2682 66.5563 11.6836 66.2943C11.0927 66.0342 10.5861 65.6647 10.1638 65.1858C9.74141 64.7068 9.42476 64.1422 9.21379 63.492C8.98073 62.7736 8.89755 62.1059 8.96426 61.4888C9.03097 60.8716 9.2269 60.3153 9.55205 59.8196C9.869 59.3198 10.2997 58.8858 10.8441 58.5175C11.3865 58.143 12.02 57.8382 12.7445 57.6031L13.7013 57.2927L16.2209 65.0583L14.6139 65.5797L12.8116 60.0249L12.6351 60.0821C12.2366 60.2251 11.885 60.4282 11.5802 60.6913C11.2735 60.9483 11.0599 61.2606 10.9396 61.6281C10.8193 61.9957 10.8395 62.4272 11.0003 62.9226C11.1208 63.2941 11.3088 63.5993 11.5643 63.8381C11.8115 64.0728 12.1149 64.2379 12.4744 64.3334C12.834 64.4289 13.2414 64.461 13.6966 64.4297C14.1437 64.3941 14.6273 64.292 15.1475 64.1232L15.519 64.0026C15.9587 63.86 16.3483 63.6685 16.6879 63.4283C17.0193 63.1839 17.2861 62.8988 17.4884 62.5731C17.6908 62.2474 17.8182 61.8912 17.8707 61.5046C17.917 61.1199 17.8708 60.714 17.7322 60.2867C17.5574 59.7479 17.2933 59.3031 16.9399 58.9524C16.5866 58.6016 16.1615 58.3357 15.6647 58.1546L16.4245 56.6042C16.8106 56.7185 17.2055 56.9018 17.6091 57.1542C18.0064 57.4085 18.3763 57.7574 18.7186 58.2007C19.059 58.6379 19.3356 59.1847 19.5486 59.8411Z" fill="#FAFAFA"/>
<path d="M18.4313 48.2718C18.3976 49.0523 18.2404 49.7526 17.9595 50.3726C17.6724 50.9858 17.2884 51.5036 16.8075 51.926C16.3269 52.3418 15.7693 52.6534 15.1348 52.8606C14.5003 53.0678 13.822 53.1559 13.1001 53.1248L12.7098 53.1079C11.8837 53.0723 11.1409 52.9197 10.4814 52.6502C9.82179 52.3806 9.26385 52.0209 8.80754 51.5712C8.34473 51.1211 7.99911 50.5979 7.77069 50.0016C7.54226 49.4053 7.44278 48.7656 7.47223 48.0827C7.50477 47.3282 7.66008 46.6734 7.93815 46.1185C8.21622 45.5636 8.59416 45.1107 9.07196 44.7598C9.54353 44.4022 10.0987 44.146 10.7375 43.991C11.3765 43.8296 12.0766 43.7653 12.8376 43.7981L13.8425 43.8415L13.4908 51.998L11.8029 51.9252L12.0545 46.0908L11.8691 46.0828C11.4458 46.0775 11.0454 46.145 10.6679 46.2851C10.2907 46.4187 9.98152 46.6367 9.7404 46.9391C9.49929 47.2415 9.36751 47.6529 9.34507 48.1732C9.32824 48.5635 9.39779 48.9151 9.55372 49.2281C9.70343 49.5343 9.93004 49.795 10.2335 50.0101C10.5371 50.2252 10.9076 50.3976 11.3451 50.5272C11.7764 50.6501 12.2653 50.7233 12.8116 50.7468L13.2019 50.7637C13.6637 50.7836 14.0956 50.7403 14.4977 50.6338C14.8936 50.5206 15.2432 50.3467 15.5466 50.1121C15.8499 49.8776 16.0938 49.5883 16.278 49.2444C16.4558 48.9002 16.5543 48.5037 16.5737 48.0549C16.5981 47.489 16.506 46.98 16.2974 46.5279C16.0888 46.0758 15.7834 45.6781 15.3812 45.3349L16.6347 44.1476C16.9566 44.3896 17.2625 44.6993 17.5525 45.0767C17.836 45.4538 18.0607 45.9099 18.2266 46.4449C18.3928 46.9734 18.461 47.5824 18.4313 48.2718Z" fill="#FAFAFA"/>
<path d="M17.8685 31.82L17.6875 31.687C17.0739 31.2357 16.5704 30.728 16.1771 30.164C15.7785 29.5961 15.5086 29.0016 15.3673 28.3805C15.2247 27.7503 15.2252 27.1122 15.3689 26.4663C15.5112 25.8113 15.8099 25.1744 16.265 24.5555C16.724 23.9313 17.243 23.4564 17.822 23.1306C18.3996 22.7958 19.0105 22.6025 19.6545 22.5509C20.2934 22.4954 20.9432 22.5733 21.6041 22.7845C22.2597 22.9919 22.8943 23.3213 23.508 23.7725L23.6889 23.9056C24.3026 24.3569 24.8061 24.8646 25.1994 25.4286C25.5927 25.9926 25.8607 26.5898 26.0034 27.22C26.1408 27.8463 26.1403 28.4843 26.0018 29.1341C25.8581 29.78 25.5587 30.4124 25.1036 31.0313C24.6446 31.6554 24.1263 32.1349 23.5487 32.4698C22.9697 32.7956 22.3608 32.9862 21.7219 33.0417C21.0779 33.0933 20.428 33.0154 19.7724 32.808C19.1168 32.6006 18.4821 32.2713 17.8685 31.82ZM19.0819 29.791L19.2629 29.924C19.6457 30.2056 20.0365 30.4324 20.4353 30.6044C20.8341 30.7765 21.2237 30.8731 21.6041 30.8943C21.9845 30.9154 22.3446 30.8489 22.6843 30.6946C23.024 30.5404 23.3269 30.2823 23.5931 29.9205C23.8515 29.5691 24.0018 29.2109 24.0439 28.8459C24.09 28.4756 24.0462 28.1121 23.9126 27.7552C23.779 27.3984 23.5707 27.0553 23.2877 26.7259C23.0085 26.3913 22.6774 26.0832 22.2946 25.8016L22.1136 25.6685C21.736 25.3908 21.3485 25.1705 20.9511 25.0076C20.5523 24.8355 20.1582 24.7396 19.7687 24.7198C19.383 24.6948 19.0203 24.7594 18.6806 24.9137C18.3395 25.0588 18.0378 25.3097 17.7755 25.6663C17.5132 26.023 17.3617 26.3883 17.321 26.7624C17.2788 27.1274 17.3271 27.4903 17.466 27.851C17.6048 28.2117 17.8157 28.5567 18.0988 28.8861C18.3766 29.2116 18.7043 29.5132 19.0819 29.791Z" fill="#FAFAFA"/>
<path d="M34.5016 19.5606L30.2284 12.7076L32.2338 11.4571L37.8246 20.4233L35.9352 21.6014L34.5016 19.5606ZM33.6207 17.5205L34.2816 17.0853C34.6571 17.6875 34.937 18.284 35.1213 18.875C35.3022 19.4604 35.3717 20.027 35.3297 20.5749C35.2843 21.1173 35.1116 21.6278 34.8116 22.1064C34.5081 22.5795 34.0553 23.0038 33.4531 23.3793C33.0167 23.6514 32.5766 23.8376 32.1327 23.9379C31.6889 24.0382 31.2517 24.0384 30.8212 23.9386C30.3962 23.8353 29.9793 23.6158 29.5704 23.28C29.1615 22.9441 28.7728 22.4807 28.4042 21.8896L24.7924 16.0972L26.7894 14.8519L30.4116 20.6609C30.6148 20.9868 30.824 21.2361 31.0391 21.4089C31.2508 21.5761 31.4643 21.6847 31.6796 21.7346C31.8948 21.7845 32.1081 21.782 32.3193 21.727C32.5305 21.672 32.7356 21.5825 32.9345 21.4585C33.5035 21.1037 33.8821 20.7142 34.0702 20.29C34.2604 19.8568 34.3058 19.4065 34.2062 18.9392C34.1121 18.4685 33.917 17.9956 33.6207 17.5205Z" fill="#FAFAFA"/>
<path d="M42.1197 10.4619L44.0118 18.8047L41.7166 19.3252L39.3795 9.02051L41.57 8.52373L42.1197 10.4619ZM44.812 7.71836L45.2768 9.85601C45.1313 9.86229 44.9746 9.8778 44.8067 9.90254C44.6451 9.92584 44.4849 9.95549 44.3262 9.99149C43.9325 10.0808 43.5995 10.2164 43.327 10.3984C43.053 10.574 42.8382 10.7896 42.6826 11.0452C42.5318 11.293 42.4356 11.5752 42.3939 11.8917C42.3522 12.2082 42.3629 12.5496 42.4259 12.9159L41.9108 13.0727C41.7639 12.4251 41.6913 11.8107 41.693 11.2296C41.6947 10.6484 41.775 10.1195 41.934 9.64282C42.0992 9.16474 42.3489 8.76432 42.6829 8.44156C43.0233 8.11736 43.4506 7.89695 43.9649 7.78031C44.1046 7.74863 44.2567 7.72749 44.4211 7.71689C44.592 7.70485 44.7223 7.70534 44.812 7.71836Z" fill="#FAFAFA"/>
<path d="M63.1428 11.2839L60.6971 19.4815L58.4418 18.8087L61.4626 8.68326L63.6149 9.32539L63.1428 11.2839ZM66.8349 10.2147L66.1908 12.3053C66.061 12.2394 65.9169 12.176 65.7584 12.1151C65.6062 12.0561 65.4521 12.0034 65.2961 11.9568C64.9093 11.8414 64.5525 11.7962 64.2258 11.821C63.901 11.8396 63.608 11.922 63.3469 12.0683C63.094 12.2103 62.8717 12.4089 62.68 12.6642C62.4883 12.9196 62.3301 13.2223 62.2053 13.5723L61.6794 13.4562C61.8693 12.8198 62.1075 12.2489 62.3942 11.7433C62.6809 11.2378 63.0105 10.8164 63.3829 10.4791C63.7615 10.1436 64.1755 9.91725 64.6249 9.79995C65.0806 9.68451 65.5611 9.70217 66.0664 9.85293C66.2037 9.89388 66.3466 9.9501 66.4951 10.0216C66.6499 10.0949 66.7631 10.1593 66.8349 10.2147Z" fill="#FAFAFA"/>
<path d="M70.938 24.9331C70.2991 24.4834 69.7946 23.973 69.4243 23.4019C69.0631 22.8292 68.8345 22.2265 68.7385 21.5937C68.6479 20.9646 68.6866 20.3271 68.8547 19.6811C69.0228 19.0351 69.3148 18.4166 69.7307 17.8257L69.9555 17.5062C70.4314 16.8301 70.9609 16.2872 71.5438 15.8775C72.1268 15.4678 72.7307 15.1923 73.3556 15.0509C73.9843 14.9043 74.6113 14.8958 75.2366 15.0254C75.8619 15.155 76.454 15.4165 77.013 15.81C77.6306 16.2447 78.0979 16.7288 78.4149 17.2625C78.732 17.7961 78.9092 18.3587 78.9466 18.9503C78.9931 19.5403 78.9091 20.146 78.6947 20.7674C78.4856 21.3924 78.1618 22.0164 77.7234 22.6393L77.1445 23.4619L70.4683 18.7628L71.4407 17.3813L76.2163 20.7426L76.323 20.5908C76.556 20.2373 76.7153 19.8638 76.8012 19.4704C76.8923 19.0808 76.8757 18.7028 76.7513 18.3366C76.6269 17.9704 76.3517 17.6374 75.9258 17.3377C75.6064 17.1128 75.2729 16.9816 74.9252 16.9439C74.5866 16.9046 74.2449 16.9546 73.9 17.094C73.5551 17.2334 73.21 17.4523 72.8646 17.7506C72.5284 18.0473 72.2029 18.4193 71.8881 18.8665L71.6633 19.1859C71.3972 19.5639 71.2005 19.9509 71.0731 20.3469C70.9547 20.7412 70.9124 21.1294 70.946 21.5114C70.9797 21.8933 71.0916 22.2547 71.2817 22.5955C71.4755 22.9309 71.756 23.2279 72.1234 23.4865C72.5866 23.8125 73.0647 24.0098 73.5579 24.0782C74.0511 24.1467 74.5507 24.1043 75.0567 23.9509L75.3795 25.647C75.0021 25.7874 74.5763 25.8777 74.102 25.9181C73.6315 25.9532 73.1263 25.8961 72.5864 25.747C72.0518 25.6016 71.5023 25.3303 70.938 24.9331Z" fill="#FAFAFA"/>
<path d="M84.7174 26.7173L74.246 33.7209L72.9376 31.7646L85.0974 23.6317L86.3026 25.4338L84.7174 26.7173ZM85.923 34.1936L85.7526 34.3077C85.114 34.7347 84.4708 35.0553 83.8229 35.2694C83.184 35.4852 82.5639 35.5827 81.9626 35.562C81.3703 35.543 80.822 35.3966 80.3178 35.1229C79.8136 34.8492 79.377 34.4364 79.0078 33.8844C78.6422 33.3378 78.422 32.7919 78.3472 32.2467C78.2813 31.7033 78.341 31.1661 78.5262 30.6349C78.7114 30.1038 78.9977 29.5833 79.3852 29.0735C79.7817 28.5656 80.2594 28.0737 80.8185 27.598L81.476 27.1582C82.167 26.7978 82.8311 26.526 83.4682 26.3427C84.1089 26.1648 84.7128 26.0898 85.2799 26.1179C85.8469 26.1459 86.3689 26.2941 86.846 26.5624C87.3231 26.8307 87.7427 27.2355 88.1046 27.7766C88.4738 28.3286 88.6931 28.8908 88.7626 29.4631C88.8375 30.0317 88.7751 30.5943 88.5755 31.1507C88.3813 31.7036 88.0571 32.2376 87.6029 32.7529C87.154 33.2646 86.5941 33.7448 85.923 34.1936ZM84.4441 32.3514L84.6146 32.2374C85.0205 31.9659 85.3712 31.6765 85.6669 31.3691C85.968 31.058 86.1968 30.7327 86.3534 30.393C86.51 30.0533 86.5763 29.7074 86.5523 29.3553C86.5373 29.005 86.4122 28.654 86.1769 28.3023C85.9453 27.9559 85.6867 27.6981 85.4011 27.5288C85.121 27.3559 84.822 27.2543 84.5042 27.2241C84.1863 27.1939 83.8586 27.2251 83.5211 27.3176C83.189 27.4066 82.8507 27.5389 82.506 27.7146L80.9313 28.7679C80.5851 29.0934 80.3021 29.4432 80.0824 29.8173C79.8626 30.1914 79.7513 30.587 79.7483 31.0042C79.7543 31.4231 79.9094 31.8598 80.2134 32.3144C80.4487 32.6661 80.7253 32.9158 81.0433 33.0634C81.3614 33.211 81.7054 33.2746 82.0756 33.2541C82.4547 33.2355 82.8455 33.1465 83.2479 32.9869C83.6504 32.8274 84.0491 32.6156 84.4441 32.3514Z" fill="#FAFAFA"/>
<path d="M87.4166 38.8467L87.6363 38.7998C88.3812 38.6408 89.0951 38.6015 89.778 38.682C90.4673 38.7612 91.091 38.9542 91.6492 39.2611C92.215 39.573 92.6917 39.9971 93.0792 40.5335C93.4744 41.0749 93.7522 41.7213 93.9126 42.4725C94.0744 43.2302 94.0848 43.9336 93.9438 44.5829C93.8106 45.2371 93.5494 45.8221 93.1602 46.3379C92.7774 46.8524 92.2876 47.2865 91.6908 47.6403C91.1003 47.9927 90.4326 48.2484 89.6877 48.4075L89.4681 48.4544C88.7231 48.6135 88.0092 48.6527 87.3263 48.5722C86.6434 48.4917 86.019 48.2955 85.4531 47.9836C84.8936 47.6703 84.4169 47.2462 84.0231 46.7112C83.6356 46.1748 83.3616 45.5309 83.2012 44.7797C83.0395 44.022 83.0252 43.3161 83.1584 42.6618C83.2994 42.0126 83.5613 41.4308 83.9441 40.9163C84.3332 40.4005 84.823 39.9664 85.4135 39.614C86.004 39.2616 86.6717 39.0058 87.4166 38.8467ZM88.1277 41.1015L87.908 41.1484C87.4433 41.2476 87.0141 41.3892 86.6207 41.573C86.2272 41.7569 85.8963 41.984 85.6278 42.2544C85.3593 42.5247 85.1699 42.8381 85.0596 43.1945C84.9493 43.5509 84.9411 43.9488 85.0349 44.3881C85.126 44.8147 85.294 45.165 85.5389 45.4389C85.7851 45.7191 86.086 45.9278 86.4414 46.065C86.7969 46.2021 87.1918 46.2742 87.626 46.2814C88.0616 46.2949 88.5118 46.252 88.9766 46.1528L89.1963 46.1059C89.6547 46.008 90.0767 45.8646 90.4625 45.6757C90.8559 45.4918 91.1894 45.2609 91.4629 44.9828C91.7377 44.7111 91.9303 44.397 92.0406 44.0406C92.1586 43.6892 92.1714 43.297 92.079 42.8641C91.9865 42.4311 91.814 42.0752 91.5614 41.7963C91.3165 41.5224 91.0131 41.3175 90.6513 41.1818C90.2894 41.046 89.8914 40.9745 89.4571 40.9674C89.0293 40.9589 88.5861 41.0036 88.1277 41.1015Z" fill="#FAFAFA"/>
<path d="M92.1847 56.3222L83.6959 55.2627L83.9874 52.9273L94.4725 54.236L94.1943 56.4648L92.1847 56.3222ZM93.8485 59.7874L91.6802 59.4971C91.7238 59.3582 91.7625 59.2055 91.7964 59.0392C91.8295 58.8793 91.8561 58.7186 91.8763 58.5571C91.9263 58.1565 91.9121 57.7972 91.8337 57.4791C91.7618 57.1617 91.6321 56.8864 91.4447 56.653C91.263 56.427 91.0304 56.2405 90.7469 56.0936C90.4634 55.9466 90.1388 55.8405 89.773 55.7752L89.8007 55.2374C90.4597 55.3196 91.0621 55.4604 91.6081 55.6598C92.154 55.8591 92.624 56.1146 93.0181 56.4262C93.4114 56.7443 93.703 57.1153 93.8929 57.5392C94.0819 57.9696 94.1438 58.4464 94.0785 58.9697C94.0607 59.1118 94.0289 59.262 93.9829 59.4203C93.9361 59.5851 93.8913 59.7074 93.8485 59.7874Z" fill="#FAFAFA"/>
<path d="M89.8344 70.8853L88.2533 70.2113L90.5892 64.7314L92.1703 65.4054L89.8344 70.8853ZM93.877 68.0013L92.9541 70.1663L83.5394 66.1531C83.24 66.0254 82.9915 65.9691 82.7941 65.984C82.6001 66.0075 82.4429 66.0856 82.3226 66.2183C82.2024 66.351 82.0975 66.5222 82.0082 66.7318C81.9444 66.8815 81.8921 67.0291 81.8513 67.1745C81.8106 67.3199 81.7813 67.4384 81.7636 67.5299L80.1068 66.8343C80.1294 66.6316 80.1709 66.4016 80.2311 66.1441C80.2887 65.8927 80.3826 65.6143 80.5128 65.3088C80.7247 64.8117 80.9992 64.4086 81.3363 64.0993C81.6793 63.7926 82.0974 63.617 82.5906 63.5724C83.0838 63.5278 83.6628 63.6473 84.3275 63.9306L93.877 68.0013Z" fill="#FAFAFA"/>
<path d="M76.4051 76.3354C76.582 76.4891 76.7802 76.5836 76.9996 76.619C77.2239 76.6586 77.5039 76.6042 77.8396 76.456C78.171 76.3127 78.5951 76.0429 79.1117 75.6466C79.5723 75.305 80.0201 75.0128 80.4553 74.7699C80.8911 74.5362 81.3113 74.3751 81.7158 74.2866C82.1203 74.1982 82.5101 74.1962 82.8853 74.2805C83.2604 74.3649 83.6151 74.5522 83.9493 74.8425C84.2737 75.1243 84.519 75.4624 84.6852 75.8568C84.8514 76.2513 84.9298 76.6772 84.9205 77.1348C84.9111 77.5923 84.806 78.0658 84.605 78.5553C84.3998 79.0497 84.0923 79.5328 83.6825 80.0047C83.1019 80.6731 82.4915 81.1476 81.8512 81.428C81.2117 81.7175 80.5892 81.8236 79.9838 81.7462C79.3833 81.6731 78.8447 81.4295 78.3679 81.0153L79.9113 79.2385C80.1226 79.4221 80.3662 79.5388 80.642 79.5886C80.9184 79.6476 81.2049 79.6205 81.5016 79.5074C81.8031 79.3985 82.0926 79.1843 82.3701 78.8648C82.6348 78.56 82.8055 78.2642 82.8822 77.9773C82.9596 77.6996 82.9648 77.4454 82.8978 77.2147C82.8266 76.989 82.7 76.7972 82.5182 76.6392C82.3854 76.5239 82.2437 76.4439 82.0928 76.3991C81.9427 76.3636 81.77 76.3688 81.5748 76.4148C81.3845 76.4651 81.1607 76.5639 80.9034 76.7112C80.6418 76.8635 80.3357 77.0719 79.9851 77.3366C79.328 77.835 78.7086 78.2155 78.1272 78.4779C77.5463 78.7495 76.9962 78.8667 76.4767 78.8294C75.9621 78.7963 75.4664 78.5728 74.9896 78.1587C74.6357 77.8513 74.3775 77.4933 74.2149 77.0848C74.053 76.6855 73.9877 76.2493 74.0191 75.7764C74.0553 75.3077 74.1874 74.8231 74.4152 74.3225C74.6388 73.8268 74.964 73.3332 75.3909 72.8417C76.0185 72.1192 76.6778 71.6182 77.3689 71.3389C78.0648 71.0638 78.7275 70.971 79.3568 71.0606C79.9868 71.1593 80.5205 71.3987 80.9579 71.7787L79.4658 73.4965C79.1194 73.2302 78.7775 73.0927 78.44 73.0841C78.1032 73.0847 77.7838 73.1695 77.4818 73.3384C77.1805 73.5165 76.9146 73.7383 76.6841 74.0037C76.4066 74.3232 76.2157 74.6274 76.1114 74.9162C76.012 75.2093 75.987 75.4764 76.0363 75.7176C76.0904 75.963 76.2134 76.1689 76.4051 76.3354Z" fill="#FAFAFA"/>
</svg>
