<svg width="92" height="93" viewBox="0 0 92 93" fill="none" xmlns="http://www.w3.org/2000/svg">
<path d="M29.834 60.877V30.877H46.5007V37.5436H63.1673V60.877H29.834ZM33.1673 57.5436H43.1673V54.2103H33.1673V57.5436ZM33.1673 50.877H43.1673V47.5436H33.1673V50.877ZM33.1673 44.2103H43.1673V40.877H33.1673V44.2103ZM33.1673 37.5436H43.1673V34.2103H33.1673V37.5436ZM46.5007 57.5436H59.834V40.877H46.5007V57.5436ZM49.834 47.5436V44.2103H56.5007V47.5436H49.834ZM49.834 54.2103V50.877H56.5007V54.2103H49.834Z" fill="#73BBC3"/>
<mask id="path-2-inside-1_1585_2519" fill="white">
<path d="M63.0277 17.5267C69.475 21.3319 74.4618 27.1871 77.1925 34.1577C79.9231 41.1284 80.2401 48.8128 78.093 55.9847C75.9458 63.1566 71.4582 69.4026 65.3464 73.7259C59.2345 78.0493 51.8506 80.2008 44.373 79.8371C36.8955 79.4735 29.7552 76.6156 24.0917 71.7195C18.4282 66.8235 14.5679 60.1715 13.1268 52.8251C11.6858 45.4787 12.747 37.8613 16.1412 31.1885C19.5354 24.5157 25.0669 19.1722 31.8529 16.0106L32.6288 17.6759C26.2149 20.6641 20.9867 25.7146 17.7787 32.0214C14.5706 38.3283 13.5676 45.5279 14.9296 52.4715C16.2917 59.415 19.9403 65.7022 25.2932 70.3297C30.6461 74.9573 37.3948 77.6584 44.4623 78.0021C51.5298 78.3459 58.5087 76.3123 64.2854 72.2261C70.0621 68.1398 74.3036 62.2364 76.333 55.4578C78.3624 48.6792 78.0627 41.4162 75.4819 34.8278C72.901 28.2394 68.1876 22.7054 62.094 19.1089L63.0277 17.5267Z"/>
</mask>
<path d="M63.0277 17.5267C69.475 21.3319 74.4618 27.1871 77.1925 34.1577C79.9231 41.1284 80.2401 48.8128 78.093 55.9847C75.9458 63.1566 71.4582 69.4026 65.3464 73.7259C59.2345 78.0493 51.8506 80.2008 44.373 79.8371C36.8955 79.4735 29.7552 76.6156 24.0917 71.7195C18.4282 66.8235 14.5679 60.1715 13.1268 52.8251C11.6858 45.4787 12.747 37.8613 16.1412 31.1885C19.5354 24.5157 25.0669 19.1722 31.8529 16.0106L32.6288 17.6759C26.2149 20.6641 20.9867 25.7146 17.7787 32.0214C14.5706 38.3283 13.5676 45.5279 14.9296 52.4715C16.2917 59.415 19.9403 65.7022 25.2932 70.3297C30.6461 74.9573 37.3948 77.6584 44.4623 78.0021C51.5298 78.3459 58.5087 76.3123 64.2854 72.2261C70.0621 68.1398 74.3036 62.2364 76.333 55.4578C78.3624 48.6792 78.0627 41.4162 75.4819 34.8278C72.901 28.2394 68.1876 22.7054 62.094 19.1089L63.0277 17.5267Z" stroke="#1D666D" stroke-width="4" mask="url(#path-2-inside-1_1585_2519)"/>
<circle cx="62" cy="18.377" r="2.5" fill="#73BBC3"/>
<circle cx="32" cy="17.377" r="2.5" fill="#73BBC3"/>
</svg>
