<svg width="93" height="93" viewBox="0 0 93 93" fill="none" xmlns="http://www.w3.org/2000/svg">
<mask id="path-1-inside-1_1585_2548" fill="white">
<path d="M63.5277 17.9037C69.975 21.7089 74.9618 27.564 77.6925 34.5347C80.4231 41.5053 80.7401 49.1897 78.593 56.3616C76.4458 63.5335 71.9582 69.7795 65.8464 74.1029C59.7345 78.4262 52.3506 80.5777 44.873 80.2141C37.3955 79.8504 30.2552 76.9925 24.5917 72.0965C18.9282 67.2004 15.0679 60.5484 13.6268 53.202C12.1858 45.8556 13.247 38.2382 16.6412 31.5655C20.0354 24.8927 25.5669 19.5491 32.3529 16.3875L33.1288 18.0528C26.7149 21.041 21.4867 26.0915 18.2787 32.3984C15.0706 38.7052 14.0676 45.9049 15.4296 52.8484C16.7917 59.7919 20.4403 66.0791 25.7932 70.7067C31.1461 75.3342 37.8948 78.0354 44.9623 78.3791C52.0298 78.7228 59.0087 76.6893 64.7854 72.603C70.5621 68.5168 74.8036 62.6133 76.833 55.8347C78.8624 49.0561 78.5627 41.7931 75.9819 35.2047C73.401 28.6164 68.6876 23.0824 62.594 19.4858L63.5277 17.9037Z"/>
</mask>
<path d="M63.5277 17.9037C69.975 21.7089 74.9618 27.564 77.6925 34.5347C80.4231 41.5053 80.7401 49.1897 78.593 56.3616C76.4458 63.5335 71.9582 69.7795 65.8464 74.1029C59.7345 78.4262 52.3506 80.5777 44.873 80.2141C37.3955 79.8504 30.2552 76.9925 24.5917 72.0965C18.9282 67.2004 15.0679 60.5484 13.6268 53.202C12.1858 45.8556 13.247 38.2382 16.6412 31.5655C20.0354 24.8927 25.5669 19.5491 32.3529 16.3875L33.1288 18.0528C26.7149 21.041 21.4867 26.0915 18.2787 32.3984C15.0706 38.7052 14.0676 45.9049 15.4296 52.8484C16.7917 59.7919 20.4403 66.0791 25.7932 70.7067C31.1461 75.3342 37.8948 78.0354 44.9623 78.3791C52.0298 78.7228 59.0087 76.6893 64.7854 72.603C70.5621 68.5168 74.8036 62.6133 76.833 55.8347C78.8624 49.0561 78.5627 41.7931 75.9819 35.2047C73.401 28.6164 68.6876 23.0824 62.594 19.4858L63.5277 17.9037Z" stroke="#1D666D" stroke-width="4" mask="url(#path-1-inside-1_1585_2548)"/>
<circle cx="62.5" cy="18.7539" r="2.5" fill="#73BBC3"/>
<circle cx="32.5" cy="17.7539" r="2.5" fill="#73BBC3"/>
<g clip-path="url(#clip0_1585_2548)">
<path d="M54.9557 44.2609V30.2109H38.2891V44.2609C38.2891 44.8443 38.5891 45.3943 39.1057 45.6943L46.0724 49.8776L44.4224 53.7776L38.7391 54.2609L43.0557 57.9943L41.7391 63.5443L46.6224 60.5943L51.5057 63.5443L50.2057 57.9943L54.5224 54.2609L48.8391 53.7776L47.1891 49.8776L54.1557 45.6943C54.6557 45.3943 54.9557 44.8609 54.9557 44.2609ZM44.9557 45.3276L41.6224 43.3276V33.5443H44.9557V45.3276ZM51.6224 43.3276L48.2891 45.3276V33.5443H51.6224V43.3276Z" fill="#73BBC3"/>
</g>
<defs>
<clipPath id="clip0_1585_2548">
<rect width="40" height="40" fill="white" transform="translate(26.623 26.877)"/>
</clipPath>
</defs>
</svg>
