<svg width="112" height="112" viewBox="0 0 112 112" fill="none" xmlns="http://www.w3.org/2000/svg">
<path d="M18.6988 38.3511L21.3825 39.4647C21.4791 39.611 21.5703 39.8181 21.6559 40.0857C21.7382 40.352 21.7691 40.6855 21.7484 41.0861C21.7258 41.482 21.6009 41.9535 21.3739 42.5007C21.1886 42.9471 20.9408 43.3263 20.6304 43.6382C20.318 43.9453 19.9554 44.1745 19.5424 44.3258C19.1275 44.4723 18.6738 44.532 18.1815 44.5047C17.6872 44.4727 17.1665 44.3432 16.6193 44.1162L16.0504 43.8801C15.5032 43.6531 15.0413 43.3866 14.6645 43.0808C14.2892 42.7716 14.0044 42.4291 13.8101 42.0534C13.6125 41.6763 13.5124 41.2727 13.5098 40.8428C13.5038 40.4114 13.5991 39.9591 13.7955 39.4858C14.0281 38.9253 14.3197 38.4974 14.6704 38.2022C15.0191 37.9023 15.4069 37.717 15.8337 37.6462C16.2619 37.572 16.705 37.5946 17.1631 37.7138L16.7598 38.6856C16.4765 38.6192 16.1986 38.6062 15.9261 38.6466C15.655 38.6836 15.4046 38.7941 15.1748 38.9781C14.9416 39.1607 14.747 39.44 14.591 39.8159C14.4503 40.155 14.3905 40.4744 14.4117 40.7744C14.4328 41.0743 14.5257 41.3529 14.6905 41.6101C14.8552 41.8674 15.0854 42.1045 15.3809 42.3216C15.6778 42.5353 16.0327 42.7278 16.4456 42.8991L17.0246 43.1394C17.4476 43.3149 17.8454 43.4229 18.2181 43.4635C18.5922 43.5007 18.9351 43.4757 19.2466 43.3886C19.5549 43.3001 19.8223 43.1533 20.049 42.9484C20.2771 42.74 20.4559 42.4798 20.5855 42.1676C20.7289 41.8219 20.8167 41.5298 20.8488 41.2913C20.8775 41.0513 20.8767 40.8543 20.8463 40.7C20.8125 40.5443 20.7719 40.4193 20.7245 40.3249L19.0831 39.6437L18.379 41.3406L17.5935 41.0146L18.6988 38.3511Z" fill="white"/>
<path d="M21.5915 34.9308L21.4913 34.8554C21.1516 34.5996 20.8738 34.313 20.6578 33.9957C20.4389 33.6762 20.292 33.3427 20.217 32.9951C20.1392 32.6453 20.1402 32.2936 20.2201 31.9397C20.2971 31.5837 20.4591 31.2417 20.7062 30.9136C20.9554 30.5826 21.2404 30.331 21.5613 30.1586C21.8814 29.9811 22.2203 29.8815 22.578 29.8596C22.9349 29.8327 23.2972 29.8802 23.6647 30.0023C24.0294 30.1222 24.3815 30.31 24.7212 30.5658L24.8214 30.6412C25.161 30.897 25.4389 31.1835 25.6549 31.5009C25.8709 31.8182 26.0167 32.1532 26.0924 32.5058C26.1673 32.8534 26.1663 33.2052 26.0893 33.5612C26.0115 33.9121 25.8481 34.2531 25.5989 34.584C25.3497 34.915 25.0661 35.1678 24.7481 35.3424C24.4272 35.5147 24.0883 35.6144 23.7314 35.6413C23.3738 35.6632 23.0126 35.6142 22.648 35.4943C22.2833 35.3744 21.9311 35.1865 21.5915 34.9308ZM22.0979 34.0497L22.1981 34.1251C22.4333 34.3022 22.6761 34.4418 22.9267 34.5441C23.1744 34.6441 23.4196 34.6991 23.6623 34.709C23.9072 34.716 24.1396 34.6703 24.3593 34.5719C24.576 34.4713 24.7686 34.3092 24.9369 34.0856C25.1031 33.865 25.2034 33.638 25.2381 33.4048C25.2719 33.1664 25.2506 32.932 25.174 32.7014C25.0974 32.4709 24.9768 32.2504 24.8122 32.04C24.6469 31.8246 24.4466 31.6283 24.2115 31.4512L24.1113 31.3758C23.879 31.2009 23.638 31.0649 23.3881 30.9678C23.1376 30.8655 22.8898 30.8109 22.6449 30.8039C22.3992 30.7918 22.1665 30.835 21.9469 30.9334C21.7293 31.0289 21.5364 31.1885 21.3681 31.412C21.202 31.6327 21.1019 31.8622 21.0681 32.1005C21.0364 32.336 21.0592 32.5715 21.1365 32.8071C21.2131 33.0377 21.3352 33.2593 21.5027 33.4718C21.6672 33.6822 21.8657 33.8748 22.0979 34.0497Z" fill="white"/>
<path d="M33.3392 19.2386L33.7447 19.898L31.0281 21.5685L30.6227 20.9091L33.3392 19.2386ZM30.7911 19.1224L31.6502 18.5941L34.7256 23.5953C34.8303 23.7656 34.9356 23.8779 35.0415 23.9322C35.1474 23.9865 35.2508 24.0019 35.3515 23.9783C35.4522 23.9548 35.5506 23.9135 35.6465 23.8545C35.7177 23.8107 35.7882 23.7588 35.858 23.6989C35.929 23.6339 35.9817 23.5844 36.0162 23.5504L36.4521 24.2487C36.3973 24.3122 36.3199 24.3876 36.2199 24.4747C36.1248 24.563 35.9999 24.6547 35.8452 24.7499C35.6346 24.8794 35.4155 24.9565 35.1876 24.9815C34.9597 25.0064 34.7332 24.9537 34.508 24.8234C34.284 24.6881 34.0692 24.4533 33.8636 24.1189L30.7911 19.1224Z" fill="white"/>
<path d="M38.9076 19.435L38.8654 19.317C38.7225 18.9165 38.6481 18.5244 38.6423 18.1406C38.6353 17.7533 38.6961 17.394 38.8248 17.0625C38.9522 16.7276 39.1466 16.4344 39.408 16.1829C39.6681 15.928 39.9916 15.7315 40.3784 15.5934C40.7686 15.4541 41.145 15.4008 41.5078 15.4334C41.8728 15.4613 42.2106 15.5645 42.5213 15.7431C42.8342 15.9169 43.1105 16.1559 43.3503 16.4601C43.5888 16.7608 43.7796 17.1114 43.9225 17.5119L43.9647 17.63C44.1076 18.0304 44.182 18.4226 44.1878 18.8064C44.1936 19.1902 44.131 19.5502 44.0002 19.8863C43.8715 20.2177 43.6771 20.5109 43.417 20.7659C43.159 21.0162 42.835 21.2109 42.4448 21.3502C42.0546 21.4895 41.6787 21.5445 41.3171 21.5154C40.9544 21.4828 40.6165 21.3796 40.3036 21.2057C39.993 21.0272 39.7183 20.7876 39.4798 20.4868C39.2413 20.1861 39.0505 19.8355 38.9076 19.435ZM39.8152 18.9779L39.8574 19.096C39.9563 19.3733 40.0823 19.6235 40.2353 19.8467C40.3871 20.0665 40.5616 20.2473 40.7589 20.3892C40.9595 20.5298 41.1787 20.6194 41.4163 20.6581C41.6527 20.6933 41.9027 20.6639 42.1662 20.5698C42.4263 20.477 42.635 20.3427 42.7922 20.1669C42.9517 19.9866 43.0628 19.779 43.1257 19.5443C43.1885 19.3097 43.2091 19.0592 43.1874 18.793C43.1679 18.5221 43.1087 18.2481 43.0097 17.9708L42.9676 17.8527C42.8698 17.5789 42.7434 17.3327 42.5882 17.1141C42.4352 16.8909 42.2583 16.709 42.0577 16.5684C41.8592 16.4232 41.6411 16.3312 41.4035 16.2925C41.1693 16.2526 40.9205 16.2797 40.6569 16.3738C40.3968 16.4667 40.187 16.6033 40.0276 16.7837C39.8716 16.9628 39.761 17.1721 39.696 17.4114C39.6331 17.6461 39.6131 17.8982 39.6361 18.1679C39.6578 18.4341 39.7175 18.7041 39.8152 18.9779Z" fill="white"/>
<path d="M58.3232 11.4933L55.1849 18.5208L54.1138 18.4439L57.6993 10.7435L58.3898 10.793L58.3232 11.4933ZM60.0025 18.8662L57.8936 11.4625L57.9276 10.7599L58.6182 10.8094L61.0791 18.9434L60.0025 18.8662ZM60.0767 15.9257L60.0151 16.7848L55.5673 16.4659L55.6289 15.6068L60.0767 15.9257Z" fill="white"/>
<path d="M66.7201 15.3485L65.2769 19.7575L64.3184 19.4437L66.1534 13.838L67.06 14.1348L66.7201 15.3485ZM66.0359 16.6676L65.6421 16.5215C65.771 16.1392 65.9439 15.8038 66.1607 15.5153C66.3786 15.2234 66.6273 14.9893 66.9068 14.8131C67.1863 14.6369 67.4856 14.5284 67.8049 14.4876C68.1288 14.4445 68.46 14.4783 68.7984 14.5891C69.0747 14.6796 69.311 14.799 69.5072 14.9473C69.7045 15.0922 69.8543 15.2713 69.9566 15.4845C70.0623 15.6988 70.1142 15.9491 70.1123 16.2352C70.1116 16.518 70.0507 16.8441 69.9297 17.2137L68.7274 20.8869L67.7637 20.5715L68.9695 16.8879C69.0656 16.5943 69.0993 16.3453 69.0706 16.1409C69.043 15.933 68.9594 15.7622 68.8196 15.6285C68.6809 15.4914 68.4907 15.3832 68.2489 15.3041C68.0106 15.2261 67.7766 15.2049 67.547 15.2406C67.3208 15.2775 67.108 15.3608 66.9088 15.4906C66.7129 15.6215 66.538 15.788 66.3839 15.9899C66.2345 16.1896 66.1185 16.4154 66.0359 16.6676Z" fill="white"/>
<path d="M76.0624 23.307L77.6492 20.7183C77.7708 20.52 77.8359 20.3233 77.8446 20.1283C77.8583 19.9321 77.8109 19.7453 77.7022 19.5679C77.5936 19.3904 77.4231 19.2305 77.1907 19.0881C76.9738 18.9551 76.7605 18.8755 76.5507 18.8492C76.344 18.8248 76.1571 18.8445 75.9901 18.9084C75.8261 18.9741 75.7014 19.0767 75.616 19.2162L74.7562 18.6891C74.8663 18.5094 75.022 18.3597 75.2232 18.2401C75.4244 18.1205 75.6555 18.0426 75.9164 18.0064C76.1822 17.969 76.4632 17.9835 76.7593 18.0499C77.0603 18.1151 77.3627 18.2408 77.6663 18.4269C78.0319 18.651 78.3162 18.9105 78.5191 19.2054C78.7251 19.5022 78.8301 19.8245 78.8343 20.1723C78.8435 20.5189 78.7332 20.8797 78.5034 21.2546L77.0675 23.5971C76.9649 23.7644 76.8697 23.9511 76.7817 24.1572C76.6968 24.3652 76.642 24.5554 76.6173 24.7278L76.5717 24.8022L75.6747 24.2523C75.6921 24.1266 75.7388 23.974 75.8147 23.7946C75.8924 23.6121 75.975 23.4496 76.0624 23.307ZM77.553 21.2091L77.1919 21.819L76.3228 21.2863C76.078 21.1362 75.8472 21.0225 75.6304 20.945C75.4155 20.8644 75.2193 20.823 75.0417 20.8207C74.864 20.8184 74.7051 20.8552 74.5647 20.9311C74.4263 21.004 74.3096 21.1179 74.2146 21.2728C74.1177 21.4308 74.0651 21.5968 74.0566 21.7706C74.048 21.9444 74.0913 22.1137 74.1864 22.2785C74.2864 22.4422 74.4418 22.5886 74.6525 22.7177C74.9158 22.8792 75.1824 22.9658 75.4522 22.9777C75.722 22.9897 75.9651 22.9511 76.1816 22.8622C76.4012 22.7751 76.5622 22.6586 76.6645 22.5124L76.7781 23.1511C76.6767 23.268 76.5295 23.376 76.3366 23.4751C76.1437 23.5743 75.922 23.6473 75.6716 23.6941C75.4262 23.7398 75.1641 23.7432 74.8852 23.7044C74.6114 23.6644 74.3381 23.5609 74.0655 23.3937C73.7246 23.1848 73.4665 22.9349 73.291 22.644C73.1186 22.355 73.0295 22.0553 73.0237 21.7449C73.0229 21.4332 73.108 21.138 73.2789 20.8591C73.4442 20.5895 73.6421 20.3848 73.8728 20.2449C74.1054 20.1019 74.3627 20.023 74.6445 20.0082C74.9283 19.9903 75.2315 20.0312 75.554 20.1309C75.8765 20.2306 76.2098 20.3858 76.5537 20.5966L77.553 21.2091Z" fill="white"/>
<path d="M86.292 21.7265L80.5906 27.859L79.848 27.1686L85.5494 21.0361L86.292 21.7265Z" fill="white"/>
<path d="M85.7043 32.308L90.9397 30.507L91.5775 31.3777L84.6867 33.4927C84.5372 33.5346 84.3682 33.5683 84.1796 33.5938C83.9903 33.6244 83.7933 33.6291 83.5885 33.6079C83.3838 33.5866 83.1853 33.5248 82.9931 33.4223C82.8001 33.3249 82.6242 33.1677 82.4652 32.9508C82.418 32.8863 82.3667 32.7978 82.3112 32.6852C82.2558 32.5726 82.2189 32.4915 82.2006 32.4419L82.857 31.9543C82.8713 31.9799 82.8952 32.0187 82.9287 32.0707C82.9615 32.1277 82.9855 32.1665 83.0005 32.187C83.1358 32.3717 83.2756 32.5103 83.4199 32.6028C83.5613 32.6975 83.7214 32.7469 83.9002 32.7511C84.0782 32.7604 84.289 32.7253 84.5327 32.6459L85.7043 32.308ZM89.2581 28.2114L86.4692 32.1531L85.7663 32.9924L85.0388 32.6266L88.6074 27.3231L89.2581 28.2114Z" fill="white"/>
<path d="M91.6867 40.4675C91.8198 40.4092 91.9299 40.3253 92.0169 40.2159C92.1087 40.1083 92.1618 39.9442 92.1764 39.7236C92.1957 39.5049 92.1624 39.2021 92.0764 38.8153C92.0085 38.4879 91.9647 38.1838 91.9449 37.9029C91.9266 37.6253 91.9419 37.3746 91.9908 37.1509C92.0411 36.9305 92.1298 36.739 92.257 36.5762C92.3841 36.4135 92.5592 36.2833 92.7823 36.1857C92.9954 36.0925 93.2172 36.0509 93.4478 36.0611C93.6798 36.0746 93.9069 36.1359 94.1292 36.2449C94.3529 36.3573 94.5603 36.5184 94.7513 36.7284C94.9424 36.9383 95.1042 37.1948 95.2368 37.4978C95.4262 37.9306 95.5113 38.3337 95.4922 38.707C95.4731 39.0803 95.371 39.4047 95.186 39.68C95.0044 39.9539 94.7588 40.1585 94.4491 40.294L94.0448 39.3701C94.1946 39.3046 94.3198 39.1962 94.4203 39.0451C94.5256 38.8959 94.5877 38.716 94.6066 38.5054C94.627 38.2982 94.584 38.073 94.4777 37.83C94.3655 37.5736 94.2345 37.383 94.0846 37.2581C93.9396 37.1352 93.7911 37.0633 93.6392 37.0425C93.4887 37.025 93.3469 37.0454 93.2137 37.1037C93.1139 37.1474 93.0312 37.2034 92.9659 37.2716C92.9054 37.3418 92.8615 37.4364 92.8342 37.5554C92.8103 37.673 92.8057 37.8257 92.8205 38.0136C92.8353 38.2015 92.8697 38.4344 92.9239 38.7122C93.0178 39.1987 93.0574 39.6157 93.0429 39.9633C93.0283 40.3108 92.9501 40.5989 92.8082 40.8276C92.6663 41.0563 92.4505 41.234 92.1609 41.3608C91.9245 41.4642 91.6862 41.509 91.4461 41.4951C91.2074 41.4845 90.9757 41.4173 90.7509 41.2935C90.5309 41.1715 90.3249 40.9999 90.1328 40.7785C89.9455 40.5589 89.7827 40.291 89.6443 39.9747C89.4359 39.4986 89.3445 39.0586 89.3701 38.6547C89.3957 38.2508 89.5062 37.9049 89.7015 37.6171C89.8969 37.3293 90.1444 37.1198 90.4441 36.9887L90.8506 37.9176C90.6033 38.0417 90.434 38.2031 90.3424 38.4018C90.2542 38.5991 90.2207 38.8081 90.242 39.0289C90.2665 39.2482 90.3203 39.4528 90.4034 39.6426C90.5141 39.8956 90.6399 40.0924 90.7808 40.2331C90.9231 40.3771 91.0723 40.4685 91.2281 40.5075C91.384 40.5464 91.5368 40.533 91.6867 40.4675Z" fill="white"/>
<path d="M97.9964 45.5521L92.2377 46.8279L92.0183 45.838L97.7771 44.5622L97.9964 45.5521ZM99.2881 44.1493C99.4477 44.1139 99.5932 44.1319 99.7244 44.2034C99.8564 44.2784 99.9436 44.4116 99.9861 44.6033C100.028 44.7913 100.005 44.9472 99.9166 45.0709C99.8294 45.1982 99.706 45.2795 99.5463 45.3149C99.3937 45.3487 99.251 45.3263 99.1182 45.2478C98.9898 45.172 98.9047 45.0401 98.8631 44.852C98.8206 44.6604 98.8416 44.5032 98.9261 44.3802C99.0148 44.2601 99.1355 44.1831 99.2881 44.1493Z" fill="white"/>
<path d="M94.9206 55.1533C95.0659 55.1501 95.1996 55.1144 95.3217 55.0462C95.4475 54.9816 95.5591 54.8501 95.6565 54.6517C95.7576 54.4568 95.8419 54.1641 95.9096 53.7736C95.9714 53.4451 96.0466 53.1472 96.1352 52.8798C96.2238 52.6161 96.3333 52.3901 96.4636 52.2019C96.594 52.0172 96.749 51.8738 96.9285 51.7717C97.108 51.6696 97.3194 51.6158 97.5629 51.6104C97.7954 51.6052 98.0163 51.6512 98.2257 51.7484C98.4351 51.8491 98.6219 51.9922 98.7859 52.1776C98.9501 52.3666 99.0806 52.5946 99.1774 52.8614C99.2741 53.1283 99.3262 53.427 99.3336 53.7576C99.344 54.23 99.2694 54.6351 99.1097 54.9731C98.95 55.3111 98.7322 55.5722 98.4564 55.7564C98.1842 55.9406 97.8792 56.0364 97.5413 56.0439L97.5189 55.0357C97.6824 55.032 97.8394 54.9795 97.9898 54.878C98.1439 54.7801 98.2698 54.6373 98.3674 54.4498C98.4651 54.2658 98.511 54.0413 98.5051 53.776C98.4989 53.4963 98.4503 53.2701 98.3592 53.0977C98.2719 52.9288 98.1619 52.8058 98.0293 52.7288C97.8969 52.6554 97.7579 52.6203 97.6126 52.6235C97.5036 52.6259 97.4059 52.6463 97.3195 52.6845C97.2368 52.7263 97.1602 52.7971 97.0898 52.8968C97.0229 52.9964 96.9606 53.136 96.9027 53.3154C96.8449 53.4948 96.7882 53.7232 96.7326 54.0007C96.6343 54.4864 96.5123 54.8871 96.3666 55.203C96.221 55.5188 96.039 55.7555 95.8208 55.913C95.6025 56.0706 95.3353 56.1528 95.0192 56.1598C94.7613 56.1656 94.5239 56.1163 94.3071 56.0121C94.0904 55.9114 93.9017 55.7611 93.7409 55.5611C93.5839 55.3647 93.4587 55.1275 93.3653 54.8497C93.2756 54.5754 93.2269 54.2657 93.2192 53.9205C93.2077 53.401 93.2906 52.9593 93.4679 52.5955C93.6453 52.2317 93.879 51.9538 94.1692 51.762C94.4594 51.5702 94.768 51.4706 95.095 51.4634L95.1175 52.4771C94.8417 52.4977 94.6236 52.5826 94.4633 52.7315C94.3067 52.8804 94.1962 53.061 94.1318 53.2732C94.0711 53.4854 94.043 53.6951 94.0476 53.9022C94.0538 54.1783 94.0952 54.4082 94.172 54.5919C94.2489 54.7792 94.352 54.9205 94.4813 55.0158C94.6106 55.1111 94.7571 55.1569 94.9206 55.1533Z" fill="white"/>
<path d="M93.5115 73.402L90.8211 72.3046C90.7236 72.1589 90.6312 71.9524 90.5439 71.6853C90.46 71.4195 90.4272 71.0862 90.4454 70.6854C90.4656 70.2894 90.5876 69.8172 90.8113 69.2687C90.9939 68.8211 91.2394 68.4404 91.5479 68.1267C91.8585 67.8177 92.2197 67.5863 92.6318 67.4325C93.0458 67.2835 93.4991 67.2211 93.9916 67.2453C94.4861 67.2743 95.0076 67.4007 95.5561 67.6244L96.1264 67.8571C96.675 68.0808 97.1385 68.3444 97.5171 68.648C97.8943 68.9549 98.1811 69.2957 98.3777 69.6702C98.5776 70.0461 98.6802 70.449 98.6853 70.879C98.6939 71.3103 98.6014 71.7632 98.4079 72.2376C98.1786 72.7996 97.8896 73.2292 97.5407 73.5265C97.1938 73.8285 96.8071 74.0162 96.3808 74.0896C95.9531 74.1663 95.5098 74.1465 95.051 74.03L95.4484 73.0558C95.7321 73.1205 96.01 73.1318 96.2823 73.0898C96.5532 73.0511 96.803 72.9391 97.0317 72.7537C97.2637 72.5697 97.4566 72.2892 97.6103 71.9123C97.749 71.5725 97.8068 71.2526 97.7839 70.9528C97.7609 70.653 97.6663 70.375 97.5 70.1188C97.3337 69.8626 97.1021 69.6268 96.8053 69.4115C96.5071 69.1996 96.151 69.0093 95.7371 68.8404L95.1567 68.6037C94.7327 68.4307 94.3342 68.3251 93.9612 68.2868C93.5869 68.2519 93.2442 68.2789 92.9332 68.3679C92.6255 68.4583 92.3589 68.6066 92.1335 68.813C91.9066 69.0227 91.7294 69.284 91.6018 69.5969C91.4604 69.9435 91.3744 70.2362 91.3437 70.4749C91.3165 70.715 91.3185 70.912 91.3499 71.0661C91.3846 71.2216 91.4259 71.3464 91.4739 71.4405L93.1194 72.1117L93.8132 70.4106L94.6006 70.7318L93.5115 73.402Z" fill="white"/>
<path d="M90.6389 76.842L90.7396 76.9168C91.0808 77.1705 91.3604 77.4554 91.5783 77.7714C91.7991 78.0896 91.9481 78.4222 92.0251 78.7693C92.1051 79.1186 92.1062 79.4704 92.0284 79.8247C91.9536 80.1812 91.7937 80.5242 91.5486 80.8537C91.3014 81.1862 91.0179 81.4396 90.6981 81.6139C90.379 81.7933 90.0408 81.8951 89.6832 81.9191C89.3265 81.9482 88.964 81.9028 88.5957 81.783C88.2303 81.6653 87.877 81.4796 87.5358 81.2259L87.4351 81.1511C87.0939 80.8974 86.8143 80.6125 86.5964 80.2965C86.3785 79.9805 86.2307 79.6464 86.1529 79.2942C86.0758 78.9471 86.0747 78.5953 86.1496 78.2389C86.2251 77.8875 86.3865 77.5456 86.6337 77.2131C86.8809 76.8806 87.163 76.6261 87.4799 76.4496C87.7997 76.2753 88.138 76.1736 88.4947 76.1445C88.8522 76.1204 89.2137 76.1673 89.5791 76.285C89.9444 76.4026 90.2977 76.5883 90.6389 76.842ZM90.1378 77.7261L90.0372 77.6513C89.801 77.4757 89.5573 77.3375 89.3061 77.2368C89.0578 77.1383 88.8123 77.0848 88.5695 77.0763C88.3245 77.0708 88.0925 77.1179 87.8734 77.2177C87.6572 77.3196 87.4656 77.4829 87.2987 77.7075C87.1339 77.9291 87.0349 78.1567 87.0017 78.3901C86.9693 78.6287 86.992 78.863 87.07 79.0931C87.148 79.3232 87.27 79.5429 87.4359 79.7523C87.6025 79.9667 87.8039 80.1618 88.0401 80.3374L88.1407 80.4122C88.3741 80.5857 88.6159 80.7202 88.8664 80.8159C89.1176 80.9166 89.3656 80.9697 89.6106 80.9752C89.8563 80.9858 90.0887 80.9412 90.3078 80.8415C90.5248 80.7446 90.7167 80.5839 90.8837 80.3593C91.0485 80.1377 91.1471 79.9076 91.1795 79.669C91.2098 79.4334 91.1856 79.198 91.1068 78.9628C91.0288 78.7328 90.9054 78.5119 90.7366 78.3004C90.5707 78.091 90.3712 77.8996 90.1378 77.7261Z" fill="white"/>
<path d="M78.9846 92.6031L78.5751 91.9462L81.2815 90.2593L81.6909 90.9162L78.9846 92.6031ZM81.5333 92.7039L80.6774 93.2373L77.5719 88.2548C77.4661 88.0852 77.3601 87.9735 77.2539 87.9199C77.1476 87.8662 77.0442 87.8514 76.9436 87.8756C76.8431 87.8997 76.745 87.9416 76.6494 88.0012C76.5784 88.0454 76.5082 88.0977 76.4388 88.1581C76.3683 88.2235 76.3158 88.2733 76.2815 88.3076L75.8414 87.6119C75.8958 87.548 75.9728 87.4722 76.0723 87.3845C76.1668 87.2956 76.2911 87.2031 76.4453 87.107C76.655 86.9763 76.8738 86.8978 77.1015 86.8715C77.3292 86.8452 77.556 86.8965 77.782 87.0254C78.0068 87.1594 78.223 87.3929 78.4306 87.726L81.5333 92.7039Z" fill="white"/>
<path d="M73.4192 92.4387L73.462 92.5565C73.6074 92.9561 73.6842 93.3478 73.6923 93.7316C73.7017 94.1188 73.643 94.4785 73.5164 94.8107C73.391 95.1464 73.1984 95.4408 72.9386 95.6939C72.68 95.9504 72.3577 96.1488 71.9718 96.2892C71.5824 96.4309 71.2063 96.4865 70.8433 96.4561C70.4782 96.4304 70.1397 96.3292 69.828 96.1526C69.514 95.9807 69.2362 95.7433 68.9946 95.4406C68.7543 95.1413 68.5614 94.7919 68.416 94.3923L68.3732 94.2745C68.2278 93.8749 68.151 93.4832 68.1429 93.0995C68.1348 92.7157 68.1951 92.3554 68.3239 92.0185C68.4505 91.6862 68.6432 91.3918 68.9018 91.1353C69.1582 90.8835 69.4811 90.6867 69.8704 90.5451C70.2597 90.4035 70.6353 90.3461 70.997 90.3731C71.36 90.4034 71.6984 90.5046 72.0124 90.6766C72.3241 90.8532 72.6002 91.0911 72.8406 91.3904C73.0809 91.6897 73.2738 92.0391 73.4192 92.4387ZM72.5143 92.9013L72.4714 92.7835C72.3708 92.5069 72.2433 92.2574 72.089 92.0351C71.9359 91.8163 71.7602 91.6365 71.5621 91.4959C71.3606 91.3565 71.1409 91.2682 70.9031 91.231C70.6665 91.1972 70.4167 91.2281 70.1537 91.3238C69.8941 91.4182 69.6863 91.5538 69.5301 91.7305C69.3718 91.9118 69.2619 92.12 69.2005 92.3551C69.139 92.5901 69.12 92.8407 69.1433 93.1068C69.1645 93.3775 69.2254 93.6512 69.326 93.9279L69.3689 94.0457C69.4683 94.3189 69.5962 94.5643 69.7528 94.782C69.9071 95.0042 70.085 95.1851 70.2866 95.3245C70.4859 95.4685 70.7045 95.5591 70.9424 95.5964C71.1768 95.6348 71.4255 95.6062 71.6885 95.5105C71.948 95.4161 72.157 95.2782 72.3153 95.0969C72.4702 94.9168 72.5795 94.7069 72.6431 94.4671C72.7045 94.2321 72.723 93.9798 72.6984 93.7103C72.6751 93.4442 72.6137 93.1746 72.5143 92.9013Z" fill="white"/>
<path d="M54.049 100.499L57.1449 93.4531L58.2166 93.5234L54.6775 101.245L53.9866 101.2L54.049 100.499ZM52.3254 93.1366L54.4788 100.528L54.449 101.23L53.7582 101.185L51.2484 93.0659L52.3254 93.1366ZM52.2689 96.0775L52.3253 95.218L56.7749 95.5102L56.7185 96.3697L52.2689 96.0775Z" fill="white"/>
<path d="M45.6307 96.6955L47.0471 92.2779L48.0074 92.5858L46.2066 98.2025L45.2982 97.9112L45.6307 96.6955ZM46.3068 95.3723L46.7016 95.516C46.5749 95.8991 46.4041 96.2355 46.1891 96.5253C45.9729 96.8185 45.7256 97.0541 45.4472 97.232C45.1688 97.4099 44.8701 97.5202 44.5511 97.563C44.2275 97.6081 43.8962 97.5762 43.557 97.4675C43.2802 97.3787 43.0432 97.2608 42.8461 97.1136C42.6479 96.9699 42.497 96.7918 42.3935 96.5792C42.2864 96.3655 42.233 96.1156 42.2331 95.8294C42.2322 95.5467 42.2911 95.2202 42.4098 94.8499L43.5898 91.1694L44.5554 91.479L43.372 95.1698C43.2777 95.464 43.2455 95.7132 43.2754 95.9174C43.3043 96.1251 43.389 96.2954 43.5296 96.4282C43.669 96.5646 43.8599 96.6716 44.1022 96.7492C44.3409 96.8258 44.5751 96.8455 44.8045 96.8084C45.0305 96.7702 45.2427 96.6856 45.4412 96.5546C45.6362 96.4224 45.8101 96.2549 45.963 96.0521C46.1112 95.8515 46.2258 95.6249 46.3068 95.3723Z" fill="white"/>
<path d="M36.239 88.7935L34.668 91.392C34.5477 91.591 34.4838 91.788 34.4762 91.9831C34.4637 92.1794 34.5124 92.3659 34.6221 92.5427C34.7318 92.7194 34.9033 92.8783 35.1366 93.0193C35.3543 93.1509 35.5681 93.2293 35.778 93.2543C35.9849 93.2774 36.1716 93.2565 36.3383 93.1916C36.5018 93.1249 36.6258 93.0215 36.7105 92.8816L37.5735 93.4033C37.4644 93.5837 37.3097 93.7343 37.1092 93.8552C36.9087 93.9761 36.6782 94.0554 36.4175 94.0931C36.1519 94.1321 35.8708 94.1194 35.5744 94.0548C35.2729 93.9915 34.9698 93.8677 34.665 93.6834C34.298 93.4615 34.0122 93.2038 33.8075 92.9102C33.5997 92.6147 33.4926 92.293 33.4863 91.9452C33.475 91.5986 33.5831 91.2372 33.8106 90.8609L35.2321 88.5097C35.3336 88.3417 35.4277 88.1544 35.5144 87.9478C35.598 87.7393 35.6516 87.5487 35.6753 87.3762L35.7204 87.3015L36.6208 87.8459C36.6041 87.9717 36.5584 88.1246 36.4837 88.3044C36.407 88.4874 36.3254 88.6504 36.239 88.7935ZM34.7613 90.9005L35.1186 90.2884L35.991 90.8158C36.2367 90.9643 36.4681 91.0767 36.6854 91.1528C36.9008 91.2321 37.0973 91.2723 37.2749 91.2735C37.4526 91.2748 37.6113 91.237 37.7512 91.1601C37.8892 91.0864 38.0052 90.9718 38.0992 90.8163C38.1951 90.6577 38.2467 90.4915 38.2542 90.3176C38.2616 90.1437 38.2173 89.9747 38.1212 89.8105C38.0202 89.6474 37.8639 89.502 37.6524 89.3741C37.3881 89.2143 37.121 89.1293 36.8512 89.119C36.5813 89.1088 36.3384 89.1488 36.1225 89.2391C35.9034 89.3275 35.7431 89.445 35.6417 89.5918L35.5241 88.9538C35.6249 88.8363 35.7714 88.7274 35.9637 88.6271C36.156 88.5268 36.3772 88.4524 36.6273 88.404C36.8724 88.3569 37.1345 88.3518 37.4136 88.3889C37.6877 88.4272 37.9616 88.5291 38.2353 88.6946C38.5774 88.9014 38.8371 89.1497 39.0144 89.4395C39.1886 89.7274 39.2795 90.0266 39.2872 90.337C39.2899 90.6486 39.2066 90.9444 39.0374 91.2243C38.8738 91.4949 38.6771 91.7008 38.4473 91.8422C38.2155 91.9866 37.9588 92.0671 37.677 92.0836C37.3934 92.1032 37.09 92.0642 36.7668 91.9665C36.4437 91.8688 36.1095 91.7156 35.7643 91.5069L34.7613 90.9005Z" fill="white"/>
<path d="M26.0204 90.4357L31.6841 84.2686L32.4309 84.9544L26.7672 91.1216L26.0204 90.4357Z" fill="white"/>
<path d="M26.542 79.8502L21.3176 81.6829L20.6745 80.8161L27.5524 78.6594C27.7016 78.6166 27.8704 78.5819 28.0588 78.5552C28.248 78.5235 28.445 78.5176 28.6499 78.5376C28.8547 78.5576 29.0536 78.6182 29.2464 78.7195C29.44 78.8158 29.6169 78.9719 29.7771 79.1879C29.8247 79.2521 29.8766 79.3403 29.9327 79.4525C29.9888 79.5647 30.0262 79.6456 30.0448 79.6951L29.3914 80.1867C29.377 80.1612 29.3528 80.1226 29.3189 80.0708C29.2858 80.0139 29.2616 79.9753 29.2465 79.9548C29.1101 79.7709 28.9694 79.6332 28.8245 79.5416C28.6825 79.4478 28.5222 79.3993 28.3434 79.3962C28.1653 79.388 27.9547 79.4244 27.7115 79.5052L26.542 79.8502ZM23.0131 83.9683L25.778 80.0097L26.4758 79.1662L27.2055 79.5277L23.6692 84.8527L23.0131 83.9683Z" fill="white"/>
<path d="M20.5102 71.7298C20.3774 71.7889 20.2678 71.8734 20.1815 71.9834C20.0904 72.0916 20.0382 72.256 20.025 72.4766C20.007 72.6955 20.0421 72.998 20.1304 73.3844C20.2003 73.7113 20.246 74.0151 20.2674 74.2959C20.2875 74.5734 20.2737 74.8242 20.2262 75.0482C20.1771 75.2688 20.0896 75.4609 19.9634 75.6244C19.8373 75.7879 19.663 75.9192 19.4405 76.0181C19.228 76.1127 19.0064 76.1555 18.7758 76.1467C18.5437 76.1346 18.3162 76.0747 18.0932 75.9671C17.8689 75.8561 17.6605 75.6962 17.4682 75.4874C17.2759 75.2786 17.1125 75.0231 16.9781 74.7209C16.7861 74.2893 16.6985 73.8867 16.7154 73.5133C16.7322 73.1398 16.8323 72.8149 17.0156 72.5385C17.1956 72.2635 17.44 72.0573 17.7488 71.92L18.1587 72.8414C18.0093 72.9079 17.8848 73.017 17.7852 73.1687C17.6808 73.3185 17.6198 73.4988 17.6022 73.7095C17.583 73.9169 17.6274 74.1418 17.7352 74.3842C17.8489 74.6398 17.9811 74.8297 18.1317 74.9536C18.2775 75.0757 18.4264 75.1467 18.5784 75.1666C18.729 75.1831 18.8707 75.1619 19.0035 75.1028C19.1031 75.0585 19.1854 75.002 19.2503 74.9333C19.3104 74.8628 19.3538 74.768 19.3803 74.6488C19.4035 74.5311 19.4071 74.3783 19.3912 74.1905C19.3753 74.0027 19.3394 73.77 19.2836 73.4926C19.1868 73.0066 19.1446 72.5898 19.157 72.2422C19.1695 71.8946 19.246 71.606 19.3865 71.3765C19.527 71.1469 19.7417 70.9679 20.0306 70.8394C20.2663 70.7345 20.5043 70.6883 20.7446 70.7008C20.9833 70.7099 21.2154 70.7757 21.4409 70.8982C21.6616 71.0188 21.8687 71.1892 22.0621 71.4094C22.2507 71.6278 22.4152 71.8947 22.5555 72.2102C22.7667 72.685 22.8608 73.1245 22.8377 73.5285C22.8145 73.9326 22.7062 74.2791 22.5125 74.5681C22.3189 74.8571 22.0726 75.0681 21.7738 75.201L21.3617 74.2746C21.6082 74.149 21.7766 73.9866 21.8669 73.7873C21.9539 73.5895 21.9861 73.3803 21.9636 73.1596C21.9377 72.9404 21.8826 72.7362 21.7984 72.5469C21.6862 72.2946 21.5592 72.0985 21.4174 71.9587C21.2742 71.8156 21.1246 71.725 20.9685 71.6871C20.8124 71.6491 20.6596 71.6634 20.5102 71.7298Z" fill="white"/>
<path d="M14.1718 66.6859L19.9227 65.3749L20.148 66.3635L14.3972 67.6745L14.1718 66.6859ZM12.8887 68.0966C12.7293 68.1329 12.5837 68.1158 12.4521 68.0452C12.3196 67.971 12.2316 67.8382 12.188 67.6469C12.1452 67.4591 12.1674 67.3031 12.2546 67.1788C12.341 67.051 12.4639 66.969 12.6234 66.9326C12.7758 66.8979 12.9186 66.9194 13.0518 66.9971C13.1808 67.0721 13.2666 67.2035 13.3094 67.3913C13.353 67.5826 13.333 67.74 13.2493 67.8634C13.1613 67.9841 13.0411 68.0619 12.8887 68.0966Z" fill="white"/>
<path d="M17.1879 57.0637C17.0426 57.0679 16.9091 57.1044 16.7874 57.1732C16.662 57.2386 16.5513 57.3708 16.4551 57.5699C16.3552 57.7654 16.2726 58.0586 16.2073 58.4494C16.1476 58.7783 16.0742 59.0767 15.9873 59.3446C15.9002 59.6088 15.7921 59.8355 15.663 60.0246C15.5337 60.21 15.3796 60.3544 15.2008 60.4576C15.0219 60.5608 14.8108 60.6159 14.5674 60.6228C14.3349 60.6294 14.1137 60.5847 13.9037 60.4889C13.6937 60.3894 13.506 60.2475 13.3409 60.0631C13.1756 59.8751 13.0437 59.6479 12.9453 59.3817C12.8468 59.1154 12.7929 58.817 12.7836 58.4864C12.7702 58.0142 12.8423 57.6086 13 57.2696C13.1576 56.9307 13.3738 56.6682 13.6484 56.4823C13.9195 56.2965 14.2239 56.1988 14.5618 56.1892L14.5903 57.1973C14.4269 57.2019 14.2702 57.2555 14.1204 57.3579C13.9669 57.4567 13.8419 57.6003 13.7454 57.7884C13.6489 57.9729 13.6043 58.1978 13.6118 58.463C13.6198 58.7427 13.6698 58.9685 13.7619 59.1404C13.8503 59.3088 13.961 59.4311 14.0941 59.5073C14.227 59.5799 14.3661 59.6141 14.5114 59.61C14.6204 59.6069 14.718 59.586 14.8042 59.5472C14.8866 59.5048 14.9627 59.4336 15.0326 59.3335C15.0988 59.2334 15.1603 59.0935 15.217 58.9138C15.2738 58.734 15.3291 58.5052 15.383 58.2274C15.4783 57.7411 15.5978 57.3396 15.7416 57.0229C15.8853 56.7062 16.0658 56.4684 16.2831 56.3095C16.5003 56.1507 16.767 56.0668 17.0831 56.0578C17.341 56.0505 17.5787 56.0983 17.7961 56.2012C18.0134 56.3005 18.203 56.4496 18.365 56.6486C18.5232 56.8441 18.6499 57.0805 18.745 57.3577C18.8364 57.6315 18.887 57.9409 18.8968 58.286C18.9115 58.8055 18.8313 59.2477 18.6562 59.6126C18.4811 59.9775 18.2491 60.2567 17.9601 60.4503C17.6711 60.6439 17.3631 60.7454 17.0361 60.7546L17.0074 59.7411C17.2831 59.7187 17.5006 59.6326 17.66 59.4826C17.8157 59.3328 17.9251 59.1516 17.9881 58.9389C18.0476 58.7263 18.0743 58.5165 18.0685 58.3095C18.0607 58.0334 18.0178 57.8037 17.9399 57.6205C17.8619 57.4337 17.7579 57.293 17.628 57.1985C17.4981 57.104 17.3514 57.0591 17.1879 57.0637Z" fill="white"/>
</svg>
