<svg width="12" height="19" viewBox="0 0 12 19" fill="none" xmlns="http://www.w3.org/2000/svg">
<path d="M6.46657 8.31406C4.19657 7.72406 3.46657 7.11406 3.46657 6.16406C3.46657 5.07406 4.47657 4.31406 6.16657 4.31406C7.94657 4.31406 8.60657 5.16406 8.66657 6.41406H10.8766C10.8066 4.69406 9.75657 3.11406 7.66657 2.60406V0.414062H4.66657V2.57406C2.72657 2.99406 1.16657 4.25406 1.16657 6.18406C1.16657 8.49406 3.07657 9.64406 5.86657 10.3141C8.36657 10.9141 8.86657 11.7941 8.86657 12.7241C8.86657 13.4141 8.37657 14.5141 6.16657 14.5141C4.10657 14.5141 3.29657 13.5941 3.18657 12.4141H0.986572C1.10657 14.6041 2.74657 15.8341 4.66657 16.2441V18.4141H7.66657V16.2641C9.61657 15.8941 11.1666 14.7641 11.1666 12.7141C11.1666 9.87406 8.73657 8.90406 6.46657 8.31406Z" fill="#164D52"/>
</svg>
