<svg width="93" height="92" viewBox="0 0 93 92" fill="none" xmlns="http://www.w3.org/2000/svg">
<mask id="path-1-inside-1_1585_2536" fill="white">
<path d="M63.5277 17.0267C69.975 20.8319 74.9618 26.6871 77.6925 33.6577C80.4231 40.6284 80.7401 48.3128 78.593 55.4847C76.4458 62.6566 71.9582 68.9026 65.8464 73.2259C59.7345 77.5493 52.3506 79.7008 44.873 79.3371C37.3955 78.9735 30.2552 76.1156 24.5917 71.2195C18.9282 66.3235 15.0679 59.6715 13.6268 52.3251C12.1858 44.9787 13.247 37.3613 16.6412 30.6885C20.0354 24.0157 25.5669 18.6722 32.3529 15.5106L33.1288 17.1759C26.7149 20.1641 21.4867 25.2146 18.2787 31.5214C15.0706 37.8283 14.0676 45.0279 15.4296 51.9715C16.7917 58.915 20.4403 65.2022 25.7932 69.8297C31.1461 74.4573 37.8948 77.1584 44.9623 77.5021C52.0298 77.8459 59.0087 75.8123 64.7854 71.7261C70.5621 67.6398 74.8036 61.7364 76.833 54.9578C78.8624 48.1792 78.5627 40.9162 75.9819 34.3278C73.401 27.7394 68.6876 22.2054 62.594 18.6089L63.5277 17.0267Z"/>
</mask>
<path d="M63.5277 17.0267C69.975 20.8319 74.9618 26.6871 77.6925 33.6577C80.4231 40.6284 80.7401 48.3128 78.593 55.4847C76.4458 62.6566 71.9582 68.9026 65.8464 73.2259C59.7345 77.5493 52.3506 79.7008 44.873 79.3371C37.3955 78.9735 30.2552 76.1156 24.5917 71.2195C18.9282 66.3235 15.0679 59.6715 13.6268 52.3251C12.1858 44.9787 13.247 37.3613 16.6412 30.6885C20.0354 24.0157 25.5669 18.6722 32.3529 15.5106L33.1288 17.1759C26.7149 20.1641 21.4867 25.2146 18.2787 31.5214C15.0706 37.8283 14.0676 45.0279 15.4296 51.9715C16.7917 58.915 20.4403 65.2022 25.7932 69.8297C31.1461 74.4573 37.8948 77.1584 44.9623 77.5021C52.0298 77.8459 59.0087 75.8123 64.7854 71.7261C70.5621 67.6398 74.8036 61.7364 76.833 54.9578C78.8624 48.1792 78.5627 40.9162 75.9819 34.3278C73.401 27.7394 68.6876 22.2054 62.594 18.6089L63.5277 17.0267Z" stroke="#1D666D" stroke-width="4" mask="url(#path-1-inside-1_1585_2536)"/>
<circle cx="62.5" cy="17.877" r="2.5" fill="#73BBC3"/>
<circle cx="32.5" cy="16.877" r="2.5" fill="#73BBC3"/>
<path d="M36.2897 53H56.2897V39.6667H36.2897V53ZM39.623 43H52.9564V49.6667H39.623V43ZM32.9564 51.3333H29.623V56.3333C29.623 58.1667 31.123 59.6667 32.9564 59.6667H37.9564V56.3333H32.9564V51.3333ZM32.9564 36.3333H37.9564V33H32.9564C31.123 33 29.623 34.5 29.623 36.3333V41.3333H32.9564V36.3333ZM59.623 33H54.623V36.3333H59.623V41.3333H62.9564V36.3333C62.9564 34.5 61.4564 33 59.623 33ZM59.623 56.3333H54.623V59.6667H59.623C61.4564 59.6667 62.9564 58.1667 62.9564 56.3333V51.3333H59.623V56.3333Z" fill="#73BBC3"/>
</svg>
