<svg width="106" height="19" viewBox="0 0 106 19" fill="none" xmlns="http://www.w3.org/2000/svg">
<path d="M9 0.71875L11.0206 6.9376H17.5595L12.2694 10.7811L14.2901 16.9999L9 13.1564L3.70993 16.9999L5.73056 10.7811L0.440492 6.9376H6.97937L9 0.71875Z" fill="#F8BD00"/>
<path d="M31 0.71875L33.0206 6.9376H39.5595L34.2694 10.7811L36.2901 16.9999L31 13.1564L25.7099 16.9999L27.7306 10.7811L22.4405 6.9376H28.9794L31 0.71875Z" fill="#F8BD00"/>
<path d="M53 0.71875L55.0206 6.9376H61.5595L56.2694 10.7811L58.2901 16.9999L53 13.1564L47.7099 16.9999L49.7306 10.7811L44.4405 6.9376H50.9794L53 0.71875Z" fill="#F8BD00"/>
<path d="M75 0.71875L77.0206 6.9376H83.5595L78.2694 10.7811L80.2901 16.9999L75 13.1564L69.7099 16.9999L71.7306 10.7811L66.4405 6.9376H72.9794L75 0.71875Z" fill="#F8BD00"/>
<path d="M97 0.71875L99.0206 6.9376H105.56L100.269 10.7811L102.29 16.9999L97 13.1564L91.7099 16.9999L93.7306 10.7811L88.4405 6.9376H94.9794L97 0.71875Z" fill="#F8BD00"/>
</svg>
