<svg width="1387" height="676" viewBox="0 0 1387 676" fill="none" xmlns="http://www.w3.org/2000/svg">
<mask id="path-1-inside-1_2224_4507" fill="white">
<path fill-rule="evenodd" clip-rule="evenodd" d="M1387 8C1387 3.58172 1383.42 0 1379 0H8C3.58172 0 0 3.58173 0 8.00001V610C0 614.418 3.58172 618 7.99999 618H624.62C628.841 618 632.28 621.299 633.055 625.448C638.426 654.221 663.67 676 694 676C724.33 676 749.574 654.221 754.945 625.448C755.72 621.299 759.159 618 763.38 618H1379C1383.42 618 1387 614.418 1387 610V8Z"/>
</mask>
<path fill-rule="evenodd" clip-rule="evenodd" d="M1387 8C1387 3.58172 1383.42 0 1379 0H8C3.58172 0 0 3.58173 0 8.00001V610C0 614.418 3.58172 618 7.99999 618H624.62C628.841 618 632.28 621.299 633.055 625.448C638.426 654.221 663.67 676 694 676C724.33 676 749.574 654.221 754.945 625.448C755.72 621.299 759.159 618 763.38 618H1379C1383.42 618 1387 614.418 1387 610V8Z" fill="#164D52"/>
<path d="M633.055 625.448L634.038 625.265L633.055 625.448ZM754.945 625.448L753.962 625.265L754.945 625.448ZM8 1H1379V-1H8V1ZM1 610V8.00001H-1V610H1ZM624.62 617H7.99999V619H624.62V617ZM694 675C664.16 675 639.322 653.573 634.038 625.265L632.072 625.632C637.53 654.869 663.179 677 694 677V675ZM753.962 625.265C748.678 653.573 723.84 675 694 675V677C724.821 677 750.47 654.869 755.928 625.632L753.962 625.265ZM1379 617H763.38V619H1379V617ZM1386 8V610H1388V8H1386ZM1379 619C1383.97 619 1388 614.971 1388 610H1386C1386 613.866 1382.87 617 1379 617V619ZM624.62 619C628.288 619 631.372 621.882 632.072 625.632L634.038 625.265C633.189 620.716 629.394 617 624.62 617V619ZM-1 610C-1 614.971 3.02943 619 7.99999 619V617C4.134 617 1 613.866 1 610H-1ZM1379 1C1382.87 1 1386 4.134 1386 8H1388C1388 3.02944 1383.97 -1 1379 -1V1ZM755.928 625.632C756.628 621.882 759.712 619 763.38 619V617C758.606 617 754.811 620.716 753.962 625.265L755.928 625.632ZM8 -1C3.02944 -1 -1 3.02945 -1 8.00001H1C1 4.13401 4.13401 1 8 1V-1Z" fill="#73BBC3" mask="url(#path-1-inside-1_2224_4507)"/>
</svg>
