<svg width="18" height="13" viewBox="0 0 18 13" fill="none" xmlns="http://www.w3.org/2000/svg">
<path d="M11.9166 5.99844C11.9166 7.6651 9.83329 8.9151 9.83329 10.1651H8.16662C8.16662 8.9151 6.08329 7.6651 6.08329 5.99844C6.08329 4.3901 7.39162 3.08177 8.99996 3.08177C10.6083 3.08177 11.9166 4.3901 11.9166 5.99844ZM9.83329 10.9984H8.16662V12.2484H9.83329V10.9984ZM17.3333 6.4151C17.3333 4.1151 16.4 2.03177 14.8916 0.523438L14.0083 1.40677C15.2916 2.6901 16.0833 4.4651 16.0833 6.4151C16.0833 8.3651 15.2916 10.1401 14.0083 11.4234L14.8916 12.3068C16.4 10.7984 17.3333 8.7151 17.3333 6.4151ZM1.91663 6.4151C1.91663 4.4651 2.70829 2.6901 3.99163 1.40677L3.10829 0.523438C1.59996 2.03177 0.666626 4.1151 0.666626 6.4151C0.666626 8.7151 1.59996 10.7984 3.10829 12.3068L3.99163 11.4234C2.70829 10.1401 1.91663 8.3651 1.91663 6.4151ZM13.5833 6.4151C13.5833 7.68177 13.0666 8.82344 12.2416 9.65677L13.125 10.5401C14.1833 9.48177 14.8333 8.02344 14.8333 6.4151C14.8333 4.80677 14.1833 3.34844 13.125 2.2901L12.2416 3.17344C13.0666 4.00677 13.5833 5.14844 13.5833 6.4151ZM4.87496 10.5401L5.75829 9.65677C4.92496 8.82344 4.41663 7.68177 4.41663 6.4151C4.41663 5.14844 4.93329 4.00677 5.75829 3.17344L4.87496 2.2901C3.81663 3.34844 3.16663 4.80677 3.16663 6.4151C3.16663 8.02344 3.81663 9.48177 4.87496 10.5401Z" fill="#1D666D"/>
</svg>
