<svg width="519" height="91" viewBox="0 0 519 91" fill="none" xmlns="http://www.w3.org/2000/svg">
<path d="M519 86.9147C519 89.1239 517.209 90.9147 515 90.9147C512.791 90.9147 511 89.1239 511 86.9147C511 84.7056 512.791 82.9147 515 82.9147C517.209 82.9147 519 84.7056 519 86.9147ZM8 4.35742C8 6.56656 6.20914 8.35742 4 8.35742C1.79089 8.35742 0 6.56656 0 4.35742C0 2.14828 1.79089 0.357422 4 0.357422C6.20914 0.357422 8 2.14828 8 4.35742ZM515 87.6647C387.259 87.6647 291.435 88.3826 219.574 87.99C147.722 87.5975 99.7665 86.0952 67.7717 81.6453C35.813 77.2004 19.5368 69.7879 11.3576 57.3436C7.2756 51.1328 5.25787 43.737 4.25296 34.9912C3.24899 26.2534 3.25 16.0994 3.25 4.35742H4.75C4.75 16.1263 4.75104 26.1854 5.74316 34.82C6.73434 43.4465 8.7088 50.5824 12.6111 56.5197C20.4007 68.3714 36.062 75.7206 67.9783 80.1596C99.8586 84.5935 147.715 86.0974 219.582 86.49C291.44 86.8826 387.241 86.1647 515 86.1647V87.6647Z" fill="#73BBC3"/>
</svg>
