<svg width="519" height="78" viewBox="0 0 519 78" fill="none" xmlns="http://www.w3.org/2000/svg">
<path d="M519 4.72544C519 2.5163 517.209 0.725441 515 0.725441C512.791 0.725441 511 2.5163 511 4.72544C511 6.93458 512.791 8.72544 515 8.72544C517.209 8.72544 519 6.93458 519 4.72544ZM8 73.3574C8 71.1483 6.20914 69.3574 4 69.3574C1.79089 69.3574 0 71.1483 0 73.3574C0 75.5666 1.79089 77.3574 4 77.3574C6.20914 77.3574 8 75.5666 8 73.3574ZM515 3.97544C259.549 3.97544 131.721 1.58661 67.7889 8.97861C35.8586 12.6705 19.5905 18.8213 11.3961 29.186C7.29187 34.3771 5.26376 40.5615 4.25513 47.8593C3.24854 55.1421 3.25 63.6009 3.25 73.3574H4.75C4.75 63.5688 4.7515 55.2239 5.741 48.0646C6.72845 40.9203 8.6925 35.0242 12.5727 30.1163C20.347 20.2831 36.0164 14.1622 67.9612 10.4687C131.779 3.08987 259.451 5.47544 515 5.47544V3.97544Z" fill="#73BBC3"/>
</svg>
