<svg width="345" height="112" viewBox="0 0 345 112" fill="none" xmlns="http://www.w3.org/2000/svg">
<path d="M345 107.803C345 110.012 343.209 111.803 341 111.803C338.791 111.803 337 110.012 337 107.803C337 105.594 338.791 103.803 341 103.803C343.209 103.803 345 105.594 345 107.803ZM8 4.35742C8 6.56656 6.20914 8.35742 4 8.35742C1.79086 8.35742 0 6.56656 0 4.35742C0 2.14828 1.79086 0.357422 4 0.357422C6.20914 0.357422 8 2.14828 8 4.35742ZM341 108.553C256.768 108.553 193.557 109.452 146.164 108.96C98.7862 108.468 67.1002 106.588 45.9334 100.994C35.337 98.1942 27.3275 94.452 21.2928 89.4497C15.2485 84.4393 11.2278 78.1997 8.55682 70.4787C5.8912 62.7731 4.56937 53.59 3.90958 42.6799C3.24969 31.7686 3.25 19.08 3.25 4.35742H4.75C4.75 19.0943 4.75027 31.7329 5.40683 42.5894C6.06345 53.447 7.37442 62.4724 9.97443 69.9883C12.5691 77.4889 16.4468 83.4843 22.2501 88.2949C28.0632 93.1136 35.8505 96.7784 46.3166 99.5441C67.2748 105.082 98.7763 106.968 146.18 107.46C193.568 107.952 256.732 107.053 341 107.053V108.553Z" fill="#73BBC3"/>
</svg>
