<svg width="331" height="93" viewBox="0 0 331 93" fill="none" xmlns="http://www.w3.org/2000/svg">
<path d="M331 4.80545C331 2.59631 329.209 0.80545 327 0.80545C324.791 0.80545 323 2.59631 323 4.80545C323 7.01459 324.791 8.80545 327 8.80545C329.209 8.80545 331 7.01459 331 4.80545ZM8 88.3574C8 86.1483 6.20914 84.3574 4 84.3574C1.79086 84.3574 0 86.1483 0 88.3574C0 90.5666 1.79086 92.3574 4 92.3574C6.20914 92.3574 8 90.5666 8 88.3574ZM327 4.05545C246.265 4.05545 185.683 3.32892 140.259 3.72626C94.8484 4.1235 64.4889 5.64278 44.212 10.1581C34.0648 12.4178 26.3909 15.438 20.6037 19.4806C14.8018 23.5335 10.9281 28.592 8.35306 34.865C5.78552 41.1196 4.51596 48.5644 3.88278 57.3875C3.2496 66.2108 3.25 76.4688 3.25 88.3574H4.75C4.75 76.4519 4.7504 66.2533 5.37894 57.4949C6.00748 48.7363 7.26135 41.4744 9.74069 35.4346C12.2125 29.4132 15.9092 24.5896 21.4627 20.7102C27.031 16.8205 34.4977 13.8581 44.538 11.6223C64.6361 7.14673 94.8391 5.62363 140.272 5.22621C185.692 4.8289 246.235 5.55545 327 5.55545V4.05545Z" fill="#73BBC3"/>
</svg>
