<svg width="155" height="62" viewBox="0 0 155 62" fill="none" xmlns="http://www.w3.org/2000/svg">
<path d="M58.4364 24.329C57.9967 24.329 57.6276 24.1754 57.3284 23.8675C57.0285 23.5603 56.8789 23.1806 56.8789 22.7299V1.91154C56.8789 1.44001 57.0285 1.0561 57.3284 0.758161C57.6276 0.461054 57.9975 0.3125 58.4364 0.3125H63.8277C65.325 0.3125 66.6533 0.635478 67.8109 1.28144C68.9685 1.9274 69.8725 2.81455 70.522 3.94122C71.1707 5.06872 71.495 6.38067 71.495 7.87706C71.495 9.27163 71.1699 10.5118 70.522 11.5976C69.8725 12.6842 68.9693 13.5346 67.8109 14.1497C66.6525 14.7648 65.325 15.0719 63.8277 15.0719H59.994V22.7291C59.994 23.1806 59.8485 23.5595 59.5599 23.8666C59.2697 24.1746 58.8949 24.329 58.4364 24.329ZM59.994 12.1209H63.8277C64.7454 12.1209 65.5543 11.9414 66.2542 11.5826C66.9525 11.2245 67.502 10.7213 67.9012 10.0762C68.3003 9.4302 68.5003 8.69744 68.5003 7.8779C68.5003 6.97572 68.3003 6.1762 67.9012 5.47934C67.5012 4.78247 66.9525 4.23916 66.2542 3.84942C65.5551 3.46051 64.7462 3.26522 63.8277 3.26522H59.994V12.1209ZM70.8666 24.329C70.587 24.329 70.3326 24.2672 70.1025 24.1445C69.8725 24.0219 69.6782 23.8266 69.5188 23.5603L64.1268 14.6421L67.1516 13.7499L72.0641 21.8678C72.4234 22.4629 72.473 23.0212 72.2136 23.5436C71.9543 24.0669 71.5056 24.329 70.8666 24.329Z" fill="white"/>
<path d="M83.2063 24.449C81.5488 24.449 80.0766 24.0851 78.7881 23.3574C77.5005 22.6296 76.4917 21.6256 75.7633 20.3437C75.0341 19.0627 74.6699 17.5913 74.6699 15.9313C74.6699 14.2505 75.0146 12.7691 75.7031 11.4881C76.3917 10.207 77.3452 9.20218 78.5638 8.47443C79.7815 7.74669 81.1797 7.38281 82.7567 7.38281C84.3143 7.38281 85.6515 7.73667 86.7701 8.44356C87.8878 9.15044 88.7414 10.1244 89.3308 11.3646C89.9193 12.6047 90.2144 14.0352 90.2144 15.6543C90.2144 16.044 90.0843 16.367 89.825 16.6232C89.5649 16.8794 89.2356 17.0079 88.8365 17.0079H76.7656V14.5476H88.7463L87.518 15.4089C87.4976 14.384 87.2977 13.4668 86.9189 12.6565C86.5392 11.8469 86.0003 11.206 85.3012 10.7345C84.6021 10.2629 83.7534 10.0276 82.7551 10.0276C81.6171 10.0276 80.6432 10.2838 79.8352 10.7962C79.0263 11.3086 78.4126 12.0105 77.9931 12.9027C77.5736 13.7948 77.3639 14.8047 77.3639 15.9313C77.3639 17.0588 77.6135 18.0637 78.1126 18.945C78.6117 19.8263 79.3003 20.524 80.179 21.0364C81.0578 21.5488 82.0658 21.8051 83.2038 21.8051C83.8225 21.8051 84.4565 21.6874 85.1061 21.4512C85.7548 21.2158 86.2791 20.9438 86.6782 20.6367C86.9774 20.4113 87.3017 20.2936 87.6513 20.2828C88 20.2728 88.3049 20.3804 88.565 20.6058C88.904 20.9129 89.0836 21.2517 89.104 21.6206C89.1235 21.9895 88.9641 22.3075 88.6243 22.5737C87.9456 23.127 87.1018 23.5785 86.0937 23.9265C85.0882 24.2754 84.1241 24.449 83.2063 24.449Z" fill="white"/>
<path d="M100.939 24.4498C99.4813 24.4498 98.1725 24.0759 97.0149 23.3273C95.8565 22.5795 94.9428 21.5647 94.2746 20.2828C93.6056 19.0017 93.2715 17.5512 93.2715 15.9313C93.2715 14.3123 93.6357 12.8559 94.3648 11.5649C95.0932 10.2729 96.0817 9.25392 97.3303 8.50531C98.5782 7.75753 99.9812 7.38281 101.539 7.38281C103.096 7.38281 104.494 7.7567 105.732 8.50531C106.97 9.25392 107.953 10.2738 108.682 11.5649C109.41 12.8568 109.775 14.3123 109.775 15.9313H108.607C108.607 17.5512 108.272 19.0017 107.604 20.2828C106.935 21.5639 106.021 22.5787 104.864 23.3273C103.704 24.0759 102.396 24.4498 100.939 24.4498ZM101.538 21.6824C102.557 21.6824 103.465 21.4312 104.264 20.9288C105.062 20.4263 105.691 19.7403 106.15 18.8682C106.61 17.9969 106.839 17.0179 106.839 15.9313C106.839 14.8247 106.609 13.8357 106.15 12.9636C105.691 12.0923 105.062 11.4063 104.264 10.903C103.465 10.4006 102.557 10.1494 101.538 10.1494C100.539 10.1494 99.6358 10.4006 98.8269 10.903C98.0181 11.4054 97.3791 12.0923 96.9101 12.9636C96.441 13.8349 96.2061 14.8239 96.2061 15.9313C96.2061 17.0179 96.4402 17.9969 96.9101 18.8682C97.3791 19.7395 98.0181 20.4263 98.8269 20.9288C99.6358 21.4312 100.539 21.6824 101.538 21.6824ZM108.247 24.3572C107.807 24.3572 107.443 24.2086 107.154 23.9115C106.864 23.6144 106.719 23.2405 106.719 22.789V18.0845L107.288 14.8247L109.774 15.9313V22.789C109.774 23.2405 109.629 23.6144 109.34 23.9115C109.051 24.2095 108.686 24.3572 108.247 24.3572Z" fill="white"/>
<path d="M121.756 24.4517C120.198 24.4517 118.795 24.0778 117.547 23.3292C116.299 22.5814 115.311 21.5607 114.582 20.2696C113.852 18.9777 113.488 17.523 113.488 15.9031C113.488 14.2841 113.822 12.8336 114.491 11.5517C115.16 10.2706 116.073 9.25577 117.232 8.50716C118.389 7.75939 119.697 7.38467 121.156 7.38467C122.334 7.38467 123.422 7.63587 124.42 8.13828C125.419 8.64069 126.257 9.32254 126.936 10.183V1.88066C126.936 1.40913 127.081 1.03023 127.37 0.74314C127.66 0.456047 128.024 0.3125 128.464 0.3125C128.923 0.3125 129.292 0.456047 129.572 0.74314C129.851 1.03023 129.991 1.40913 129.991 1.88066V15.9031C129.991 17.523 129.626 18.9785 128.898 20.2696C128.169 21.5615 127.185 22.5814 125.948 23.3292C124.711 24.0778 123.313 24.4517 121.756 24.4517ZM121.756 21.6842C122.774 21.6842 123.682 21.433 124.481 20.9306C125.28 20.4282 125.909 19.7363 126.368 18.855C126.827 17.9737 127.057 16.9898 127.057 15.9031C127.057 14.7965 126.827 13.8117 126.368 12.9513C125.909 12.09 125.28 11.409 124.481 10.9066C123.682 10.4041 122.774 10.1529 121.756 10.1529C120.757 10.1529 119.853 10.4041 119.045 10.9066C118.236 11.409 117.597 12.0908 117.128 12.9513C116.659 13.8125 116.424 14.7965 116.424 15.9031C116.424 16.9898 116.658 17.9737 117.128 18.855C117.597 19.7363 118.236 20.4282 119.045 20.9306C119.854 21.433 120.757 21.6842 121.756 21.6842Z" fill="white"/>
<path d="M58.4364 61.2274C57.9967 61.2274 57.6276 61.0739 57.3284 60.7659C57.0285 60.4588 56.8789 60.0791 56.8789 59.6284V38.81C56.8789 38.3384 57.0285 37.9545 57.3284 37.6566C57.6276 37.3595 57.9975 37.2109 58.4364 37.2109H63.8277C65.325 37.2109 66.6533 37.5339 67.8109 38.1799C68.9685 38.8258 69.8725 39.713 70.522 40.8397C71.1707 41.9672 71.495 43.2799 71.495 44.7755C71.495 46.1701 71.1699 47.4102 70.522 48.496C69.8725 49.5826 68.9693 50.4331 67.8109 51.0481C66.6525 51.6632 65.325 51.9703 63.8277 51.9703H59.994V59.6275C59.994 60.0791 59.8485 60.4579 59.5599 60.7651C59.2697 61.073 58.8949 61.2274 58.4364 61.2274ZM59.994 49.0193H63.8277C64.7454 49.0193 65.5543 48.8399 66.2542 48.481C66.9525 48.123 67.502 47.6197 67.9012 46.9746C68.3003 46.3286 68.5003 45.5959 68.5003 44.7763C68.5003 43.8742 68.3003 43.0746 67.9012 42.3778C67.5012 41.6809 66.9525 41.1376 66.2542 40.7479C65.5551 40.3589 64.7463 40.1637 63.8277 40.1637H59.994V49.0193ZM70.8667 61.2274C70.587 61.2274 70.3326 61.1657 70.1025 61.043C69.8725 60.9203 69.6782 60.725 69.5188 60.4588L64.1276 51.5414L67.1525 50.6492L72.0649 58.7671C72.4242 59.3622 72.4738 59.9205 72.2145 60.4429C71.9543 60.9654 71.5056 61.2274 70.8667 61.2274Z" fill="white"/>
<path d="M77.3344 41.6749C76.7955 41.6749 76.3313 41.4754 75.9419 41.0757C75.5525 40.6759 75.3574 40.1994 75.3574 39.646C75.3574 39.0927 75.5525 38.6162 75.9419 38.2164C76.3313 37.8166 76.7955 37.6172 77.3344 37.6172C77.8734 37.6172 78.3375 37.8166 78.7269 38.2164C79.1163 38.6162 79.3106 39.0927 79.3106 39.646C79.3106 40.1994 79.1163 40.6759 78.7269 41.0757C78.3375 41.4754 77.8734 41.6749 77.3344 41.6749ZM77.3344 61.2322C76.8946 61.2322 76.5304 61.0837 76.2411 60.7866C75.9517 60.4895 75.807 60.1156 75.807 59.6641V45.9804C75.807 45.5089 75.9517 45.13 76.2411 44.8429C76.5304 44.5558 76.8946 44.4123 77.3344 44.4123C77.7937 44.4123 78.1628 44.5558 78.4424 44.8429C78.7221 45.13 78.8619 45.5097 78.8619 45.9804V59.6641C78.8619 60.1156 78.7221 60.4895 78.4424 60.7866C78.1628 61.0837 77.7937 61.2322 77.3344 61.2322Z" fill="white"/>
<path d="M91.9821 61.3522C90.384 61.3522 88.9614 60.9783 87.7136 60.2297C86.4657 59.4819 85.487 58.467 84.7781 57.1851C84.0693 55.9041 83.7148 54.4536 83.7148 52.8337C83.7148 51.1729 84.0636 49.6974 84.7635 48.4054C85.4626 47.1144 86.421 46.1045 87.6388 45.3768C88.8565 44.649 90.2547 44.2852 91.8318 44.2852C93.0097 44.2852 94.0884 44.5155 95.0663 44.977C96.0443 45.4385 96.923 46.1304 97.7018 47.0526C97.9814 47.3806 98.0806 47.7194 98.0009 48.0674C97.9213 48.4163 97.7018 48.7234 97.3417 48.9896C97.062 49.1949 96.7523 49.2617 96.4133 49.1899C96.0735 49.1182 95.7646 48.9387 95.485 48.6516C94.5062 47.5859 93.2885 47.0526 91.8309 47.0526C90.8124 47.0526 89.9141 47.2938 89.1353 47.7753C88.3566 48.2569 87.7469 48.9287 87.3079 49.7892C86.8681 50.6504 86.6486 51.6653 86.6486 52.8337C86.6486 53.9403 86.873 54.9243 87.3225 55.7856C87.7721 56.6468 88.3956 57.3287 89.1947 57.8303C89.993 58.3327 90.9213 58.5839 91.9805 58.5839C92.6796 58.5839 93.2934 58.4971 93.8226 58.3227C94.3518 58.1491 94.8355 57.877 95.2752 57.5081C95.5947 57.2419 95.9239 57.0933 96.2637 57.0625C96.6027 57.0316 96.9027 57.1292 97.162 57.3546C97.501 57.6416 97.6912 57.9646 97.731 58.3235C97.7709 58.6824 97.6514 59.0053 97.3717 59.2924C95.9361 60.6653 94.1388 61.3522 91.9821 61.3522Z" fill="white"/>
<path d="M104.082 55.1075C103.642 55.1075 103.278 54.959 102.989 54.6618C102.699 54.3647 102.555 53.9909 102.555 53.5393V38.7791C102.555 38.3076 102.699 37.9287 102.989 37.6416C103.278 37.3545 103.642 37.2109 104.082 37.2109C104.541 37.2109 104.911 37.3545 105.19 37.6416C105.47 37.9287 105.61 38.3084 105.61 38.7791V53.5393C105.61 53.9909 105.47 54.3647 105.19 54.6618C104.911 54.959 104.541 55.1075 104.082 55.1075ZM104.082 61.2575C103.642 61.2575 103.278 61.1089 102.989 60.8118C102.699 60.5147 102.555 60.1408 102.555 59.6893V45.9748C102.555 45.5032 102.699 45.1244 102.989 44.8373C103.278 44.5502 103.642 44.4066 104.082 44.4066C104.541 44.4066 104.911 44.5502 105.19 44.8373C105.47 45.1244 105.61 45.5041 105.61 45.9748V59.6893C105.61 60.1408 105.47 60.5147 105.19 60.8118C104.911 61.1098 104.541 61.2575 104.082 61.2575ZM116.392 61.2575C115.952 61.2575 115.588 61.1089 115.299 60.8118C115.009 60.5147 114.865 60.1408 114.865 59.6893V52.1247C114.865 50.9563 114.655 50.0033 114.235 49.2647C113.816 48.5269 113.252 47.9786 112.543 47.6197C111.834 47.2617 111.02 47.0814 110.102 47.0814C109.263 47.0814 108.504 47.2559 107.826 47.6039C107.147 47.9527 106.607 48.4184 106.208 49.0026C105.808 49.5868 105.609 50.2586 105.609 51.0164H103.723C103.723 49.7245 104.027 48.572 104.637 47.5571C105.245 46.5423 106.079 45.7378 107.138 45.1435C108.196 44.5493 109.384 44.2522 110.702 44.2522C112.08 44.2522 113.313 44.5552 114.401 45.1594C115.489 45.7645 116.348 46.6508 116.977 47.8192C117.607 48.9876 117.921 50.423 117.921 52.1239V59.6885C117.921 60.14 117.776 60.5139 117.487 60.811C117.196 61.1098 116.831 61.2575 116.392 61.2575Z" fill="white"/>
<path d="M130.71 61.3513C129.053 61.3513 127.58 60.9874 126.292 60.2597C125.004 59.532 123.996 58.528 123.267 57.2461C122.538 55.965 122.174 54.4936 122.174 52.8337C122.174 51.1529 122.519 49.6715 123.207 48.3904C123.896 47.1093 124.849 46.1045 126.068 45.3768C127.285 44.649 128.684 44.2852 130.261 44.2852C131.818 44.2852 133.155 44.639 134.274 45.3459C135.392 46.0528 136.245 47.0267 136.835 48.2669C137.423 49.5079 137.718 50.9375 137.718 52.5566C137.718 52.9463 137.588 53.2693 137.329 53.5255C137.069 53.7817 136.74 53.9103 136.34 53.9103H124.27V51.45H136.25L135.022 52.3112C135.002 51.2864 134.802 50.3692 134.423 49.5588C134.043 48.7493 133.504 48.1083 132.805 47.6368C132.106 47.1653 131.257 46.9299 130.259 46.9299C129.121 46.9299 128.147 47.1861 127.339 47.6986C126.53 48.211 125.916 48.9129 125.497 49.805C125.078 50.6963 124.868 51.707 124.868 52.8337C124.868 53.9612 125.117 54.966 125.617 55.8473C126.116 56.7286 126.804 57.4263 127.683 57.9388C128.562 58.4512 129.57 58.7074 130.708 58.7074C131.326 58.7074 131.96 58.5897 132.61 58.3535C133.259 58.1182 133.783 57.8461 134.182 57.539C134.481 57.3137 134.806 57.196 135.155 57.1851C135.504 57.1751 135.809 57.2828 136.069 57.5081C136.408 57.8152 136.588 58.1541 136.608 58.523C136.627 58.8918 136.468 59.2098 136.128 59.476C135.449 60.0294 134.606 60.4809 133.598 60.8289C132.592 61.1777 131.628 61.3513 130.71 61.3513Z" fill="white"/>
<path d="M147.573 61.3496C146.175 61.3496 144.882 61.1293 143.695 60.6887C142.506 60.248 141.583 59.6897 140.924 59.0128C140.625 58.6849 140.5 58.311 140.55 57.8904C140.599 57.4706 140.793 57.1267 141.133 56.8605C141.532 56.5325 141.927 56.3948 142.316 56.4457C142.705 56.4974 143.04 56.6761 143.319 56.984C143.658 57.3738 144.203 57.7376 144.952 58.0756C145.7 58.4136 146.533 58.583 147.453 58.583C148.61 58.583 149.494 58.3886 150.104 57.9988C150.713 57.6099 151.027 57.1075 151.048 56.4924C151.067 55.8774 150.783 55.3449 150.194 54.8934C149.605 54.4427 148.532 54.0738 146.974 53.7868C144.957 53.377 143.495 52.7619 142.586 51.9415C141.677 51.122 141.224 50.1171 141.224 48.9279C141.224 47.8822 141.523 47.0167 142.122 46.3299C142.721 45.643 143.489 45.1306 144.428 44.7926C145.366 44.4546 146.345 44.2852 147.363 44.2852C148.681 44.2852 149.849 44.5005 150.868 44.9311C151.886 45.3618 152.695 45.9568 153.294 46.7146C153.574 47.0426 153.703 47.3864 153.684 47.7445C153.663 48.1033 153.494 48.4054 153.175 48.6516C152.855 48.8778 152.476 48.9487 152.037 48.867C151.597 48.7852 151.228 48.6007 150.929 48.3136C150.43 47.8221 149.89 47.4832 149.311 47.2988C148.732 47.1144 148.063 47.0217 147.304 47.0217C146.425 47.0217 145.682 47.1753 145.073 47.4832C144.463 47.7904 144.159 48.2419 144.159 48.8361C144.159 49.205 144.253 49.5388 144.443 49.8351C144.633 50.1322 145.008 50.3992 145.567 50.6346C146.125 50.8708 146.945 51.1011 148.023 51.3264C149.52 51.6336 150.704 52.0233 151.572 52.4948C152.441 52.9664 153.064 53.5147 153.444 54.1398C153.823 54.7657 154.013 55.4876 154.013 56.308C154.013 57.2511 153.768 58.1023 153.279 58.8601C152.79 59.6187 152.07 60.2238 151.122 60.6745C150.174 61.1243 148.991 61.3496 147.573 61.3496Z" fill="white"/>
<path d="M21.9555 1.28906H1.86523V19.4494C1.86523 25.6077 6.85975 30.6001 13.02 30.6001H21.9555" stroke="white" stroke-width="2.0897" stroke-miterlimit="10"/>
<path d="M21.9555 31.6836H18.3982C9.2676 31.6836 1.86523 39.0829 1.86523 48.2106V60.9938" stroke="white" stroke-width="2.0897" stroke-miterlimit="10"/>
<path d="M24.0703 31.6836H27.6276C36.759 31.6836 44.1614 39.0829 44.1614 48.2106V60.9938" stroke="#BDF8FE" stroke-width="2.0897" stroke-miterlimit="10"/>
<path d="M24.0703 1.28906H44.1606V19.4494C44.1606 25.6077 39.1661 30.6001 33.0058 30.6001H24.0703" stroke="#BDF8FE" stroke-width="2.0897" stroke-miterlimit="10"/>
<path d="M31.567 26.2545H24.0703V5.62891H39.931V17.6676C39.931 22.4096 36.1859 26.2545 31.567 26.2545Z" fill="white"/>
<path d="M39.931 60.9961H24.0703V36.0273H25.4563C33.4505 36.0273 39.931 42.6805 39.931 50.8877V60.9961Z" fill="white"/>
</svg>
