<svg width="19" height="20" viewBox="0 0 19 20" fill="none" xmlns="http://www.w3.org/2000/svg">
<path d="M4.3335 16.4141C3.2335 16.4141 2.29183 16.0224 1.5085 15.2391C0.725163 14.4557 0.333496 13.5141 0.333496 12.4141C0.333496 11.3141 0.725163 10.3724 1.5085 9.58906C2.29183 8.80573 3.2335 8.41406 4.3335 8.41406C5.4335 8.41406 6.37516 8.80573 7.1585 9.58906C7.94183 10.3724 8.3335 11.3141 8.3335 12.4141C8.3335 13.5141 7.94183 14.4557 7.1585 15.2391C6.37516 16.0224 5.4335 16.4141 4.3335 16.4141ZM4.3335 14.4141C4.8835 14.4141 5.35416 14.2181 5.7455 13.8261C6.1375 13.4347 6.3335 12.9641 6.3335 12.4141C6.3335 11.8641 6.1375 11.3931 5.7455 11.0011C5.35416 10.6097 4.8835 10.4141 4.3335 10.4141C3.7835 10.4141 3.31283 10.6097 2.9215 11.0011C2.5295 11.3931 2.3335 11.8641 2.3335 12.4141C2.3335 12.9641 2.5295 13.4347 2.9215 13.8261C3.31283 14.2181 3.7835 14.4141 4.3335 14.4141ZM8.3335 6.41406C8.8835 6.41406 9.3545 6.21806 9.7465 5.82606C10.1378 5.43473 10.3335 4.96406 10.3335 4.41406C10.3335 3.86406 10.1378 3.3934 9.7465 3.00206C9.3545 2.61006 8.8835 2.41406 8.3335 2.41406C7.7835 2.41406 7.31283 2.61006 6.9215 3.00206C6.5295 3.3934 6.3335 3.86406 6.3335 4.41406C6.3335 4.96406 6.5295 5.43473 6.9215 5.82606C7.31283 6.21806 7.7835 6.41406 8.3335 6.41406ZM8.3335 8.41406C7.2335 8.41406 6.29183 8.0224 5.5085 7.23906C4.72516 6.45573 4.3335 5.51406 4.3335 4.41406C4.3335 3.31406 4.72516 2.3724 5.5085 1.58906C6.29183 0.805729 7.2335 0.414062 8.3335 0.414062C9.4335 0.414062 10.3752 0.805729 11.1585 1.58906C11.9418 2.3724 12.3335 3.31406 12.3335 4.41406C12.3335 5.51406 11.9418 6.45573 11.1585 7.23906C10.3752 8.0224 9.4335 8.41406 8.3335 8.41406ZM14.3335 17.4141C14.8835 17.4141 15.3545 17.2184 15.7465 16.8271C16.1378 16.4351 16.3335 15.9641 16.3335 15.4141C16.3335 14.8641 16.1378 14.3934 15.7465 14.0021C15.3545 13.6101 14.8835 13.4141 14.3335 13.4141C13.7835 13.4141 13.3128 13.6101 12.9215 14.0021C12.5295 14.3934 12.3335 14.8641 12.3335 15.4141C12.3335 15.9641 12.5295 16.4351 12.9215 16.8271C13.3128 17.2184 13.7835 17.4141 14.3335 17.4141ZM14.3335 19.4141C13.2335 19.4141 12.2918 19.0224 11.5085 18.2391C10.7252 17.4557 10.3335 16.5141 10.3335 15.4141C10.3335 14.3141 10.7252 13.3724 11.5085 12.5891C12.2918 11.8057 13.2335 11.4141 14.3335 11.4141C15.4335 11.4141 16.3752 11.8057 17.1585 12.5891C17.9418 13.3724 18.3335 14.3141 18.3335 15.4141C18.3335 16.5141 17.9418 17.4557 17.1585 18.2391C16.3752 19.0224 15.4335 19.4141 14.3335 19.4141Z" fill="#1D666D"/>
</svg>
