<svg width="33" height="33" viewBox="0 0 33 33" fill="none" xmlns="http://www.w3.org/2000/svg">
<rect y="0.277344" width="32.6517" height="32.6517" rx="16.3259" fill="#427A7A"/>
<g clip-path="url(#clip0_1764_5418)">
<path d="M24.6551 24.9325L21.3673 21.6447M15.8258 23.9329C17.9024 23.9329 19.8939 23.108 21.3623 21.6397C22.8307 20.1713 23.6556 18.1798 23.6556 16.1032C23.6556 14.0266 22.8307 12.0351 21.3623 10.5667C19.8939 9.09836 17.9024 8.27344 15.8258 8.27344C13.7493 8.27344 11.7577 9.09836 10.2894 10.5667C8.82101 12.0351 7.99609 14.0266 7.99609 16.1032C7.99609 18.1798 8.82101 20.1713 10.2894 21.6397C11.7577 23.108 13.7493 23.9329 15.8258 23.9329Z" stroke="#E8F0F0" stroke-width="1.55484" stroke-linecap="round" stroke-linejoin="round"/>
<path d="M14.3263 13.2715L11.6609 15.9369L14.3263 18.6024M16.9918 13.2715L19.6572 15.9369L16.9918 18.6024" stroke="#E8F0F0" stroke-width="1.55484" stroke-linecap="round" stroke-linejoin="round"/>
</g>
<defs>
<clipPath id="clip0_1764_5418">
<rect width="18.6581" height="18.6581" fill="white" transform="translate(6.99683 7.27344)"/>
</clipPath>
</defs>
</svg>
