<svg width="93" height="93" viewBox="0 0 93 93" fill="none" xmlns="http://www.w3.org/2000/svg">
<mask id="path-1-inside-1_1585_2527" fill="white">
<path d="M63.5277 17.9037C69.975 21.7089 74.9618 27.564 77.6925 34.5347C80.4231 41.5053 80.7401 49.1897 78.593 56.3616C76.4458 63.5335 71.9582 69.7795 65.8464 74.1029C59.7345 78.4262 52.3506 80.5777 44.873 80.2141C37.3955 79.8504 30.2552 76.9925 24.5917 72.0965C18.9282 67.2004 15.0679 60.5484 13.6268 53.202C12.1858 45.8556 13.247 38.2382 16.6412 31.5655C20.0354 24.8927 25.5669 19.5491 32.3529 16.3875L33.1288 18.0528C26.7149 21.041 21.4867 26.0915 18.2787 32.3984C15.0706 38.7052 14.0676 45.9049 15.4296 52.8484C16.7917 59.7919 20.4403 66.0791 25.7932 70.7067C31.1461 75.3342 37.8948 78.0354 44.9623 78.3791C52.0298 78.7228 59.0087 76.6893 64.7854 72.603C70.5621 68.5168 74.8036 62.6133 76.833 55.8347C78.8624 49.0561 78.5627 41.7931 75.9819 35.2047C73.401 28.6164 68.6876 23.0824 62.594 19.4858L63.5277 17.9037Z"/>
</mask>
<path d="M63.5277 17.9037C69.975 21.7089 74.9618 27.564 77.6925 34.5347C80.4231 41.5053 80.7401 49.1897 78.593 56.3616C76.4458 63.5335 71.9582 69.7795 65.8464 74.1029C59.7345 78.4262 52.3506 80.5777 44.873 80.2141C37.3955 79.8504 30.2552 76.9925 24.5917 72.0965C18.9282 67.2004 15.0679 60.5484 13.6268 53.202C12.1858 45.8556 13.247 38.2382 16.6412 31.5655C20.0354 24.8927 25.5669 19.5491 32.3529 16.3875L33.1288 18.0528C26.7149 21.041 21.4867 26.0915 18.2787 32.3984C15.0706 38.7052 14.0676 45.9049 15.4296 52.8484C16.7917 59.7919 20.4403 66.0791 25.7932 70.7067C31.1461 75.3342 37.8948 78.0354 44.9623 78.3791C52.0298 78.7228 59.0087 76.6893 64.7854 72.603C70.5621 68.5168 74.8036 62.6133 76.833 55.8347C78.8624 49.0561 78.5627 41.7931 75.9819 35.2047C73.401 28.6164 68.6876 23.0824 62.594 19.4858L63.5277 17.9037Z" stroke="#1D666D" stroke-width="4" mask="url(#path-1-inside-1_1585_2527)"/>
<circle cx="62.5" cy="18.7539" r="2.5" fill="#73BBC3"/>
<circle cx="32.5" cy="17.7539" r="2.5" fill="#73BBC3"/>
<path d="M54.623 44.6547V26.877H38.623V40.2103H26.623V66.877H66.623V44.6547H54.623ZM42.623 31.3214H50.623V62.4325H42.623V31.3214ZM30.623 44.6547H38.623V62.4325H30.623V44.6547ZM62.623 62.4325H54.623V49.0992H62.623V62.4325Z" fill="#73BBC3"/>
</svg>
