<svg width="18" height="19" viewBox="0 0 18 19" fill="none" xmlns="http://www.w3.org/2000/svg">
<path d="M10.9104 4.95213C11.6586 5.09782 12.3462 5.46303 12.8852 6.001C13.4242 6.53898 13.7901 7.22526 13.9361 7.97199M10.9104 1.89404C12.4648 2.06639 13.9143 2.76114 15.0209 3.86422C16.1275 4.9673 16.8254 6.41314 17 7.96435M16.234 14.0652V16.3588C16.2349 16.5717 16.1912 16.7825 16.1057 16.9776C16.0203 17.1726 15.8949 17.3478 15.7377 17.4917C15.5805 17.6357 15.3949 17.7452 15.1928 17.8135C14.9908 17.8817 14.7766 17.907 14.5642 17.8878C12.2071 17.6322 9.94297 16.8283 7.95371 15.5408C6.10295 14.367 4.53384 12.8008 3.35779 10.9536C2.06326 8.95914 1.25765 6.68835 1.00622 4.32522C0.987076 4.11381 1.01225 3.90073 1.08014 3.69956C1.14802 3.49838 1.25713 3.31352 1.40052 3.15674C1.54391 2.99996 1.71843 2.8747 1.91298 2.78893C2.10753 2.70316 2.31785 2.65876 2.53053 2.65856H4.82849C5.20022 2.65491 5.56061 2.7863 5.84247 3.02824C6.12433 3.27017 6.30843 3.60615 6.36046 3.97354C6.45745 4.70753 6.63732 5.42822 6.89665 6.12185C6.99971 6.39549 7.02201 6.69288 6.96092 6.97879C6.89983 7.26469 6.7579 7.52712 6.55195 7.73499L5.57915 8.70593C6.66958 10.6199 8.25739 12.2047 10.1751 13.2931L11.1479 12.3221C11.3561 12.1166 11.6191 11.9749 11.9055 11.9139C12.192 11.853 12.4899 11.8752 12.7641 11.9781C13.4591 12.2369 14.1811 12.4164 14.9165 12.5132C15.2886 12.5656 15.6284 12.7527 15.8713 13.0389C16.1143 13.325 16.2433 13.6903 16.234 14.0652Z" stroke="#73BBC3" stroke-width="2" stroke-linecap="round" stroke-linejoin="round"/>
</svg>
