<svg width="24" height="24" viewBox="0 0 24 24" fill="none" xmlns="http://www.w3.org/2000/svg">
<path fill-rule="evenodd" clip-rule="evenodd" d="M10.9444 1.25H13.0564C14.8944 1.25 16.3504 1.25 17.4894 1.403C18.6614 1.561 19.6104 1.893 20.3594 2.641C21.1074 3.39 21.4394 4.339 21.5974 5.511C21.7224 6.439 21.7454 7.578 21.7494 8.961C21.7507 8.98532 21.7507 9.00968 21.7494 9.034L21.7504 9.944V13.056C21.7504 14.894 21.7504 16.35 21.5974 17.489C21.4394 18.661 21.1074 19.61 20.3594 20.359C19.8994 20.818 19.3654 21.12 18.7504 21.322V22C18.7504 22.1989 18.6714 22.3897 18.5307 22.5303C18.3901 22.671 18.1993 22.75 18.0004 22.75C17.8015 22.75 17.6107 22.671 17.4701 22.5303C17.3294 22.3897 17.2504 22.1989 17.2504 22V21.626C16.1484 21.75 14.7684 21.75 13.0564 21.75H10.9444C9.23242 21.75 7.85242 21.75 6.75042 21.626V22C6.75042 22.1989 6.6714 22.3897 6.53075 22.5303C6.3901 22.671 6.19933 22.75 6.00042 22.75C5.80151 22.75 5.61074 22.671 5.47009 22.5303C5.32944 22.3897 5.25042 22.1989 5.25042 22V21.322C4.63542 21.12 4.10042 20.818 3.64142 20.359C2.89342 19.61 2.56142 18.661 2.40342 17.489C2.25042 16.349 2.25042 14.894 2.25042 13.056V9.034C2.24963 9.01 2.24996 8.98597 2.25142 8.962C2.25542 7.578 2.27842 6.439 2.40342 5.511C2.56142 4.339 2.89342 3.39 3.64142 2.641C4.39042 1.893 5.33942 1.561 6.51142 1.403C7.65142 1.25 9.10642 1.25 10.9444 1.25ZM3.75042 9.75V13C3.75042 14.907 3.75242 16.262 3.89042 17.29C4.02542 18.295 4.27942 18.875 4.70242 19.298C5.12542 19.721 5.70542 19.975 6.71142 20.11C7.73942 20.248 9.09342 20.25 11.0004 20.25H13.0004C14.9074 20.25 16.2624 20.248 17.2904 20.11C18.2954 19.975 18.8754 19.721 19.2984 19.298C19.7214 18.875 19.9754 18.295 20.1104 17.289C20.2484 16.262 20.2504 14.907 20.2504 13V9.75H3.75042ZM20.2444 8.25H3.75642C3.76642 7.216 3.79842 6.392 3.89042 5.71C4.02542 4.705 4.27942 4.125 4.70242 3.702C5.12542 3.279 5.70542 3.025 6.71142 2.89C7.73942 2.752 9.09342 2.75 11.0004 2.75H13.0004C14.9074 2.75 16.2624 2.752 17.2904 2.89C18.2954 3.025 18.8754 3.279 19.2984 3.702C19.7214 4.125 19.9754 4.705 20.1104 5.711C20.2024 6.391 20.2334 7.216 20.2444 8.25ZM5.75042 5.5C5.75042 5.30109 5.82944 5.11032 5.97009 4.96967C6.11074 4.82902 6.30151 4.75 6.50042 4.75H9.50042C9.69933 4.75 9.8901 4.82902 10.0307 4.96967C10.1714 5.11032 10.2504 5.30109 10.2504 5.5C10.2504 5.69891 10.1714 5.88968 10.0307 6.03033C9.8901 6.17098 9.69933 6.25 9.50042 6.25H6.50042C6.30151 6.25 6.11074 6.17098 5.97009 6.03033C5.82944 5.88968 5.75042 5.69891 5.75042 5.5ZM12.0004 12.75C11.4037 12.75 10.8314 12.9871 10.4094 13.409C9.98747 13.831 9.75042 14.4033 9.75042 15C9.75042 15.5967 9.98747 16.169 10.4094 16.591C10.8314 17.0129 11.4037 17.25 12.0004 17.25C12.5972 17.25 13.1695 17.0129 13.5914 16.591C14.0134 16.169 14.2504 15.5967 14.2504 15C14.2504 14.4033 14.0134 13.831 13.5914 13.409C13.1695 12.9871 12.5972 12.75 12.0004 12.75ZM8.25042 15C8.25042 14.0054 8.64551 13.0516 9.34877 12.3483C10.052 11.6451 11.0059 11.25 12.0004 11.25C12.995 11.25 13.9488 11.6451 14.6521 12.3483C15.3553 13.0516 15.7504 14.0054 15.7504 15C15.7504 15.9946 15.3553 16.9484 14.6521 17.6517C13.9488 18.3549 12.995 18.75 12.0004 18.75C11.0059 18.75 10.052 18.3549 9.34877 17.6517C8.64551 16.9484 8.25042 15.9946 8.25042 15Z" fill="white"/>
<path d="M15.5 5.5C15.5 5.76522 15.3946 6.01957 15.2071 6.20711C15.0196 6.39464 14.7652 6.5 14.5 6.5C14.2348 6.5 13.9804 6.39464 13.7929 6.20711C13.6054 6.01957 13.5 5.76522 13.5 5.5C13.5 5.23478 13.6054 4.98043 13.7929 4.79289C13.9804 4.60536 14.2348 4.5 14.5 4.5C14.7652 4.5 15.0196 4.60536 15.2071 4.79289C15.3946 4.98043 15.5 5.23478 15.5 5.5ZM18.5 5.5C18.5 5.76522 18.3946 6.01957 18.2071 6.20711C18.0196 6.39464 17.7652 6.5 17.5 6.5C17.2348 6.5 16.9804 6.39464 16.7929 6.20711C16.6054 6.01957 16.5 5.76522 16.5 5.5C16.5 5.23478 16.6054 4.98043 16.7929 4.79289C16.9804 4.60536 17.2348 4.5 17.5 4.5C17.7652 4.5 18.0196 4.60536 18.2071 4.79289C18.3946 4.98043 18.5 5.23478 18.5 5.5Z" fill="white"/>
</svg>
