<svg width="24" height="24" viewBox="0 0 24 24" fill="none" xmlns="http://www.w3.org/2000/svg">
<g clip-path="url(#clip0_1521_4891)">
<path d="M10 11.334H12V12.6673H10V11.334Z" fill="white"/>
<path d="M17.634 9.44637C16.4516 7.51157 14.8387 5.87578 12.9207 4.66637C12.0346 4.1048 11.0245 3.76867 9.97865 3.68732C8.93278 3.60598 7.88289 3.78189 6.92065 4.19971C6.07899 4.59671 5.34661 5.19262 4.78677 5.93598C4.22693 6.67934 3.85644 7.5478 3.70732 8.46637C3.65398 8.77971 3.61398 9.07971 3.57398 9.37304C2.94981 9.47421 2.3819 9.79388 1.97161 10.275C1.56131 10.7561 1.33532 11.3674 1.33398 11.9997V16.0864C1.33398 16.44 1.47446 16.7791 1.72451 17.0292C1.97456 17.2792 2.3137 17.4197 2.66732 17.4197V11.9997C2.66732 11.6461 2.80779 11.3069 3.05784 11.0569C3.30789 10.8068 3.64703 10.6664 4.00065 10.6664H16.4873C17.7722 10.6681 19.0039 11.1793 19.9125 12.0879C20.821 12.9964 21.3322 14.2282 21.334 15.513V15.9997H20.0007C19.7191 15.3131 19.1946 14.7542 18.5272 14.4297C17.8599 14.1051 17.0964 14.0377 16.3825 14.2401C15.6686 14.4426 15.0542 14.9009 14.6566 15.5274C14.259 16.154 14.106 16.905 14.2268 17.6372C14.3476 18.3694 14.7337 19.0315 15.3116 19.4971C15.8894 19.9627 16.6184 20.1993 17.3595 20.1617C18.1007 20.1241 18.802 19.8149 19.3297 19.2932C19.8574 18.7714 20.1746 18.0737 20.2207 17.333H21.334C21.6876 17.333 22.0267 17.1926 22.2768 16.9425C22.5268 16.6925 22.6673 16.3533 22.6673 15.9997V15.513C22.6646 14.0743 22.1606 12.6815 21.242 11.5743C20.3233 10.467 19.0475 9.71458 17.634 9.44637ZM7.33398 9.33304H4.62065C4.62065 9.12637 4.68065 8.91304 4.72065 8.66637C4.83583 7.93401 5.13642 7.24328 5.59383 6.65985C6.05124 6.07642 6.65027 5.61967 7.33398 5.33304V9.33304ZM8.66732 9.33304V5.05304C9.91195 4.89141 11.1742 5.16459 12.2407 5.82637C13.6965 6.73316 14.953 7.92616 15.934 9.33304H8.66732ZM17.2007 18.9197C16.871 18.9197 16.5488 18.822 16.2747 18.6388C16.0006 18.4557 15.787 18.1954 15.6609 17.8908C15.5347 17.5863 15.5017 17.2512 15.566 16.9279C15.6303 16.6046 15.7891 16.3076 16.0221 16.0745C16.2552 15.8414 16.5522 15.6827 16.8755 15.6184C17.1988 15.5541 17.5339 15.5871 17.8385 15.7132C18.143 15.8394 18.4033 16.053 18.5864 16.3271C18.7696 16.6012 18.8673 16.9234 18.8673 17.253C18.8673 17.6951 18.6917 18.119 18.3792 18.4315C18.0666 18.7441 17.6427 18.9197 17.2007 18.9197Z" fill="white"/>
<path d="M9.447 15.9991C9.16543 15.3126 8.64094 14.7537 7.97358 14.4291C7.30623 14.1046 6.54275 14.0371 5.82883 14.2396C5.1149 14.4421 4.50052 14.9003 4.10291 15.5269C3.7053 16.1534 3.5523 16.9045 3.67311 17.6367C3.79392 18.3688 4.18008 19.0309 4.7579 19.4965C5.33572 19.9622 6.06475 20.1987 6.80588 20.1611C7.54701 20.1235 8.24834 19.8143 8.77606 19.2926C9.30378 18.7709 9.62093 18.0731 9.667 17.3325H13.2003V17.1658C13.1871 16.7725 13.2321 16.3794 13.3337 15.9991H9.447ZM6.667 18.9191C6.33736 18.9191 6.01513 18.8214 5.74105 18.6383C5.46696 18.4551 5.25334 18.1948 5.1272 17.8903C5.00105 17.5857 4.96804 17.2506 5.03235 16.9273C5.09666 16.604 5.2554 16.3071 5.48848 16.074C5.72157 15.8409 6.01854 15.6821 6.34185 15.6178C6.66515 15.5535 7.00026 15.5865 7.3048 15.7127C7.60935 15.8388 7.86964 16.0524 8.05278 16.3265C8.23591 16.6006 8.33366 16.9228 8.33366 17.2525C8.33366 17.6945 8.15807 18.1184 7.84551 18.431C7.53295 18.7436 7.10902 18.9191 6.667 18.9191Z" fill="white"/>
</g>
<defs>
<clipPath id="clip0_1521_4891">
<rect width="24" height="24" fill="white"/>
</clipPath>
</defs>
</svg>
