<svg width="21" height="20" viewBox="0 0 21 20" fill="none" xmlns="http://www.w3.org/2000/svg">
<path d="M10 0C4.486 0 0 4.486 0 10C0 15.514 4.486 20 10 20C15.514 20 20 15.514 20 10C20 8.874 19.804 7.7942 19.459 6.7832L17.8398 8.40234C17.9448 8.91834 18 9.453 18 10C18 14.411 14.411 18 10 18C5.589 18 2 14.411 2 10C2 5.589 5.589 2 10 2C11.633 2 13.1519 2.49389 14.4199 3.33789L15.8516 1.90625C14.2036 0.71225 12.185 0 10 0ZM19.293 1.29297L9 11.5859L5.70703 8.29297L4.29297 9.70703L9 14.4141L20.707 2.70703L19.293 1.29297Z" fill="white"/>
</svg>
