<svg width="24" height="24" viewBox="0 0 24 24" fill="none" xmlns="http://www.w3.org/2000/svg">
<path d="M18.1583 7.32L9.74826 2.494L6.19826 8.62M18.1583 7.32L15.9013 11.216M18.1583 7.32L18.9993 7.804M9.74926 2.494L8.91226 2M15.9013 11.216L14.1883 14.174L12.5493 17M15.9013 11.216L13.3433 9.745M12.5493 17L11.0543 19.581C10.408 20.6927 9.3476 21.5031 8.10523 21.8348C6.86286 22.1665 5.53968 21.9925 4.42526 21.351C3.87404 21.0348 3.39068 20.6129 3.0029 20.1095C2.61513 19.606 2.33058 19.031 2.16557 18.4173C2.00056 17.8037 1.95835 17.1635 2.04135 16.5334C2.12436 15.9034 2.33094 15.296 2.64926 14.746L3.94926 12.5M12.5493 17L9.93626 15.497M14.1873 14.174L9.98426 11.756" stroke="white" stroke-width="1.5" stroke-linecap="round"/>
<path d="M22 14.9174C22 16.0674 21.105 17.0004 20 17.0004C18.895 17.0004 18 16.0674 18 14.9174C18 14.1974 18.783 13.2364 19.37 12.6174C19.4506 12.5311 19.5482 12.4622 19.6566 12.4151C19.7649 12.368 19.8818 12.3438 20 12.3438C20.1182 12.3438 20.2351 12.368 20.3434 12.4151C20.4518 12.4622 20.5494 12.5311 20.63 12.6174C21.217 13.2364 22 14.1974 22 14.9174Z" stroke="white" stroke-width="1.5"/>
</svg>
