<svg width="22" height="21" viewBox="0 0 22 21" fill="none" xmlns="http://www.w3.org/2000/svg">
<path d="M0 21L14 16L5 7L0 21ZM10.35 15.18L3.3 17.7L5.82 10.65L10.35 15.18Z" fill="#1E6E76"/>
<path d="M12.5302 11.5299L18.1202 5.93989C18.6102 5.44989 19.4002 5.44989 19.8902 5.93989L20.4802 6.52989L21.5402 5.46989L20.9502 4.87989C19.8802 3.80989 18.1302 3.80989 17.0602 4.87989L11.4702 10.4699L12.5302 11.5299Z" fill="#1E6E76"/>
<path d="M8.06021 5.87996L7.47021 6.46996L8.53021 7.52996L9.12021 6.93996C10.1902 5.86996 10.1902 4.11996 9.12021 3.04996L8.53021 2.45996L7.47021 3.52996L8.06021 4.11996C8.54021 4.59996 8.54021 5.39996 8.06021 5.87996Z" fill="#1E6E76"/>
<path d="M15.0602 10.8799L13.4702 12.4699L14.5302 13.5299L16.1202 11.9399C16.6102 11.4499 17.4002 11.4499 17.8902 11.9399L19.5002 13.5499L20.5602 12.4899L18.9502 10.8799C17.8702 9.80989 16.1302 9.80989 15.0602 10.8799Z" fill="#1E6E76"/>
<path d="M13.0602 4.87996L9.47021 8.46996L10.5302 9.52996L14.1202 5.93996C15.1902 4.86996 15.1902 3.11996 14.1202 2.04996L12.5302 0.459961L11.4702 1.51996L13.0602 3.10996C13.5402 3.59996 13.5402 4.39996 13.0602 4.87996Z" fill="#1E6E76"/>
</svg>
