<svg width="15" height="16" viewBox="0 0 15 16" fill="none" xmlns="http://www.w3.org/2000/svg">
<path d="M7.5 0.3125C3.36675 0.3125 0 3.67925 0 7.8125C0 11.9458 3.36675 15.3125 7.5 15.3125C11.6333 15.3125 15 11.9458 15 7.8125C15 3.67925 11.6333 0.3125 7.5 0.3125ZM7.5 1.8125C10.8226 1.8125 13.5 4.48991 13.5 7.8125C13.5 10.8233 11.299 13.2973 8.41406 13.7363V9.60107H10.1602L10.4341 7.82715H8.41406V6.85742C8.41406 6.12017 8.65424 5.46582 9.34424 5.46582H10.4517V3.91748C10.2567 3.89123 9.84513 3.83398 9.06738 3.83398C7.44288 3.83398 6.49072 4.69198 6.49072 6.64648V7.82715H4.8208V9.60107H6.49072V13.7217C3.65272 13.2431 1.5 10.7902 1.5 7.8125C1.5 4.48991 4.17741 1.8125 7.5 1.8125Z" fill="#1E6E76"/>
</svg>
