<svg width="18" height="18" viewBox="0 0 18 18" fill="none" xmlns="http://www.w3.org/2000/svg">
<path d="M16 0.000244141H2C0.9 0.000244141 0 0.900244 0 2.00024V16.0002C0 17.1002 0.9 18.0002 2 18.0002H16C17.1 18.0002 18 17.1002 18 16.0002V2.00024C18 0.900244 17.1 0.000244141 16 0.000244141ZM16 16.0002H14.27L16 14.2702V16.0002ZM16 13.0002H15.15L12.15 16.0002H10.53L13.53 13.0002H11.41L8.41 16.0002H6.8L9.8 13.0002H7.68L4.68 16.0002H2.84L5.84 13.0002H3.72L2 14.7202V2.00024H16V13.0002Z" fill="#1D666D"/>
<path d="M7.67 8.00024L9.67 10.0002L14.75 4.91024L13.34 3.50024L9.67 7.17024L7.67 5.17024L3.25 9.59024L4.66 11.0002L7.67 8.00024Z" fill="#1D666D"/>
</svg>
