<svg width="61" height="60" viewBox="0 0 61 60" fill="none" xmlns="http://www.w3.org/2000/svg">
<g clip-path="url(#clip0_1_1409)">
<g clip-path="url(#clip1_1_1409)">
<path d="M20.6396 37.7663C20.1156 37.7663 19.6673 37.5799 19.2945 37.2071C18.9211 36.8337 18.7344 36.3851 18.7344 35.8611C18.7344 35.3372 18.9211 34.8885 19.2945 34.5151C19.6673 34.1423 20.1156 33.956 20.6396 33.956H20.8901C20.9612 33.956 21.0365 33.9718 21.1159 34.0036L25.4501 29.6693C25.4184 29.5899 25.4025 29.5143 25.4025 29.4426V29.193C25.4025 28.6691 25.5892 28.2204 25.9626 27.847C26.3354 27.4742 26.7838 27.2878 27.3077 27.2878C27.8316 27.2878 28.2803 27.4742 28.6537 27.847C29.0265 28.2204 29.2129 28.6691 29.2129 29.193C29.2129 29.2247 29.197 29.3835 29.1652 29.6693L31.5944 32.0984C31.6737 32.0666 31.7493 32.0508 31.8211 32.0508H32.3202C32.392 32.0508 32.4676 32.0666 32.5469 32.0984L35.9286 28.7167C35.8969 28.6373 35.881 28.5617 35.881 28.49V28.2404C35.881 27.7165 36.0674 27.2678 36.4402 26.8944C36.8136 26.5216 37.2623 26.3352 37.7862 26.3352C38.3101 26.3352 38.7588 26.5216 39.1322 26.8944C39.505 27.2678 39.6914 27.7165 39.6914 28.2404C39.6914 28.7643 39.505 29.2127 39.1322 29.5855C38.7588 29.9589 38.3101 30.1456 37.7862 30.1456H37.5366C37.4649 30.1456 37.3893 30.1297 37.3099 30.098L33.9282 33.4797C33.96 33.559 33.9758 33.6346 33.9758 33.7064V33.956C33.9758 34.4799 33.7894 34.9285 33.4167 35.302C33.0432 35.6747 32.5946 35.8611 32.0707 35.8611C31.5467 35.8611 31.0984 35.6747 30.7256 35.302C30.3522 34.9285 30.1655 34.4799 30.1655 33.956V33.7064C30.1655 33.6346 30.1813 33.559 30.2131 33.4797L27.784 31.0505C27.7046 31.0823 27.629 31.0982 27.5573 31.0982H27.3077C27.2759 31.0982 27.1172 31.0823 26.8314 31.0505L22.4971 35.3848C22.5289 35.4642 22.5447 35.5398 22.5447 35.6116V35.8611C22.5447 36.3851 22.358 36.8337 21.9846 37.2071C21.6118 37.5799 21.1635 37.7663 20.6396 37.7663ZM21.5921 28.2166L20.9968 26.9306L19.7108 26.3352L20.9968 25.7399L21.5921 24.4539L22.1875 25.7399L23.4735 26.3352L22.1875 26.9306L21.5921 28.2166ZM32.0707 27.2878L31.1657 25.335L29.2129 24.43L31.1657 23.5251L32.0707 21.5723L32.9756 23.5251L34.9284 24.43L32.9756 25.335L32.0707 27.2878Z" fill="#73BBC3"/>
</g>
</g>
<mask id="path-2-inside-1_1_1409" fill="white">
<path d="M41.6345 11.134C45.8505 13.6223 49.1115 17.451 50.8971 22.0093C52.6827 26.5675 52.89 31.5925 51.4859 36.2823C50.0819 40.9722 47.1474 45.0565 43.1507 47.8837C39.154 50.7108 34.3256 52.1177 29.4359 51.8799C24.5461 51.6421 19.877 49.7733 16.1735 46.5716C12.4701 43.37 9.94575 39.0202 9.00342 34.2162C8.06108 29.4123 8.75504 24.4311 10.9746 20.0677C13.1941 15.7042 16.8112 12.21 21.2487 10.1426L21.7561 11.2315C17.5619 13.1856 14.1431 16.4882 12.0453 20.6123C9.94754 24.7365 9.29164 29.4445 10.1823 33.985C11.073 38.5255 13.4588 42.6368 16.9592 45.6628C20.4596 48.6889 24.8726 50.4552 29.4942 50.68C34.1158 50.9047 38.6795 49.575 42.4569 46.9029C46.2344 44.2308 49.008 40.3704 50.3351 35.9378C51.6621 31.5051 51.4662 26.7557 49.7785 22.4475C48.0908 18.1392 45.0087 14.5204 41.0239 12.1686L41.6345 11.134Z"/>
</mask>
<path d="M41.6345 11.134C45.8505 13.6223 49.1115 17.451 50.8971 22.0093C52.6827 26.5675 52.89 31.5925 51.4859 36.2823C50.0819 40.9722 47.1474 45.0565 43.1507 47.8837C39.154 50.7108 34.3256 52.1177 29.4359 51.8799C24.5461 51.6421 19.877 49.7733 16.1735 46.5716C12.4701 43.37 9.94575 39.0202 9.00342 34.2162C8.06108 29.4123 8.75504 24.4311 10.9746 20.0677C13.1941 15.7042 16.8112 12.21 21.2487 10.1426L21.7561 11.2315C17.5619 13.1856 14.1431 16.4882 12.0453 20.6123C9.94754 24.7365 9.29164 29.4445 10.1823 33.985C11.073 38.5255 13.4588 42.6368 16.9592 45.6628C20.4596 48.6889 24.8726 50.4552 29.4942 50.68C34.1158 50.9047 38.6795 49.575 42.4569 46.9029C46.2344 44.2308 49.008 40.3704 50.3351 35.9378C51.6621 31.5051 51.4662 26.7557 49.7785 22.4475C48.0908 18.1392 45.0087 14.5204 41.0239 12.1686L41.6345 11.134Z" stroke="#1D666D" stroke-width="4" mask="url(#path-2-inside-1_1_1409)"/>
<circle cx="40.9629" cy="11.6914" r="1.1348" fill="#73BBC3" stroke="#73BBC3"/>
<circle cx="21.3457" cy="11.0371" r="1.1348" fill="#73BBC3" stroke="#73BBC3"/>
<defs>
<clipPath id="clip0_1_1409">
<rect width="26.1567" height="26.1567" fill="white" transform="translate(17.748 16.5957)"/>
</clipPath>
<clipPath id="clip1_1_1409">
<rect width="23" height="23" fill="white" transform="translate(18 20.998)"/>
</clipPath>
</defs>
</svg>
