<svg width="15" height="15" viewBox="0 0 15 15" fill="none" xmlns="http://www.w3.org/2000/svg">
<path d="M3.95833 0.6875C1.77571 0.6875 0 2.46321 0 4.64583V10.9792C0 13.1618 1.77571 14.9375 3.95833 14.9375H10.2917C12.4743 14.9375 14.25 13.1618 14.25 10.9792V4.64583C14.25 2.46321 12.4743 0.6875 10.2917 0.6875H3.95833ZM3.95833 2.27083H10.2917C11.6011 2.27083 12.6667 3.33642 12.6667 4.64583V10.9792C12.6667 12.2886 11.6011 13.3542 10.2917 13.3542H3.95833C2.64892 13.3542 1.58333 12.2886 1.58333 10.9792V4.64583C1.58333 3.33642 2.64892 2.27083 3.95833 2.27083ZM11.0833 3.0625C10.8734 3.0625 10.672 3.14591 10.5235 3.29437C10.3751 3.44284 10.2917 3.6442 10.2917 3.85417C10.2917 4.06413 10.3751 4.26549 10.5235 4.41396C10.672 4.56243 10.8734 4.64583 11.0833 4.64583C11.2933 4.64583 11.4947 4.56243 11.6431 4.41396C11.7916 4.26549 11.875 4.06413 11.875 3.85417C11.875 3.6442 11.7916 3.44284 11.6431 3.29437C11.4947 3.14591 11.2933 3.0625 11.0833 3.0625ZM7.125 3.85417C4.94238 3.85417 3.16667 5.62988 3.16667 7.8125C3.16667 9.99512 4.94238 11.7708 7.125 11.7708C9.30762 11.7708 11.0833 9.99512 11.0833 7.8125C11.0833 5.62988 9.30762 3.85417 7.125 3.85417ZM7.125 5.4375C8.43442 5.4375 9.5 6.50308 9.5 7.8125C9.5 9.12192 8.43442 10.1875 7.125 10.1875C5.81558 10.1875 4.75 9.12192 4.75 7.8125C4.75 6.50308 5.81558 5.4375 7.125 5.4375Z" fill="#1E6E76"/>
</svg>
