<svg width="24" height="24" viewBox="0 0 24 24" fill="none" xmlns="http://www.w3.org/2000/svg">
<g clip-path="url(#clip0_1521_4929)">
<path d="M10.3242 7.45312C9.15572 8.33871 8.05019 9.30447 7.01565 10.3434C2.14022 15.2188 -0.328346 20.6514 1.49908 22.4806C3.32651 24.308 8.7608 21.8377 13.6345 16.964C14.6735 15.9289 15.6393 14.8228 16.5248 13.6537" stroke="white" stroke-width="1.5" stroke-linecap="round" stroke-linejoin="round"/>
<path d="M16.5251 13.6534C19.3999 17.4694 20.5708 21.0591 19.1514 22.4786C17.3222 24.3077 11.8896 21.8374 7.01422 16.9637C2.14222 12.0866 -0.326355 6.65571 1.50107 4.82657C2.9205 3.40885 6.51022 4.57971 10.3262 7.45285" stroke="white" stroke-width="1.5" stroke-linecap="round" stroke-linejoin="round"/>
<path d="M9.4668 13.653C9.4668 13.8803 9.5571 14.0983 9.71785 14.2591C9.87859 14.4198 10.0966 14.5101 10.3239 14.5101C10.5513 14.5101 10.7693 14.4198 10.93 14.2591C11.0908 14.0983 11.1811 13.8803 11.1811 13.653C11.1811 13.4257 11.0908 13.2077 10.93 13.0469C10.7693 12.8862 10.5513 12.7959 10.3239 12.7959C10.0966 12.7959 9.87859 12.8862 9.71785 13.0469C9.5571 13.2077 9.4668 13.4257 9.4668 13.653ZM13.7697 6.189C13.2297 6.09471 13.2297 5.32157 13.7697 5.229C14.7234 5.06309 15.6061 4.61692 16.3053 3.94737C17.0044 3.27783 17.4884 2.41523 17.6954 1.46957L17.7262 1.32043C17.8428 0.789 18.6005 0.785571 18.7205 1.31529L18.7617 1.48843C18.9764 2.4299 19.4646 3.28692 20.1649 3.95183C20.8652 4.61673 21.7463 5.05987 22.6977 5.22557C23.2394 5.31986 23.2394 6.09814 22.6977 6.19071C21.7463 6.35642 20.8652 6.79956 20.1649 7.46446C19.4646 8.12936 18.9764 8.98638 18.7617 9.92786L18.7205 10.101C18.6005 10.6324 17.8428 10.629 17.7262 10.0976L17.6919 9.94843C17.4849 9.00277 17.001 8.14017 16.3018 7.47063C15.6027 6.80108 14.72 6.35491 13.7662 6.189H13.7697Z" stroke="white" stroke-width="1.5" stroke-linecap="round" stroke-linejoin="round"/>
</g>
<defs>
<clipPath id="clip0_1521_4929">
<rect width="24" height="24" fill="white"/>
</clipPath>
</defs>
</svg>
