<svg width="13" height="14" viewBox="0 0 13 14" fill="none" xmlns="http://www.w3.org/2000/svg">
<path d="M1.44444 0.3125C0.646389 0.3125 0 0.958889 0 1.75694V11.8681C0 12.6661 0.646389 13.3125 1.44444 13.3125H11.5556C12.3536 13.3125 13 12.6661 13 11.8681V1.75694C13 0.958889 12.3536 0.3125 11.5556 0.3125H1.44444ZM1.44444 1.75694H11.5556V11.8681H1.44444V1.75694ZM3.45171 2.70768C2.83277 2.70768 2.46148 3.07975 2.46148 3.5752C2.46148 4.07064 2.83281 4.4413 3.38965 4.4413C4.00859 4.4413 4.37988 4.07064 4.37988 3.5752C4.37988 3.07975 4.00855 2.70768 3.45171 2.70768ZM2.51085 5.36806V10.4236H4.33333V5.36806H2.51085ZM5.83702 5.36806V10.4236H7.6595V7.66026C7.6595 6.83765 8.24641 6.7194 8.42263 6.7194C8.59886 6.7194 9.0701 6.89615 9.0701 7.66026V10.4236H10.8333V7.66026C10.8333 6.07354 10.1283 5.36806 9.24642 5.36806C8.36459 5.36806 7.89423 5.66168 7.6595 6.07335V5.36806H5.83702Z" fill="#1E6E76"/>
</svg>
