<svg width="20" height="20" viewBox="0 0 20 20" fill="none" xmlns="http://www.w3.org/2000/svg">
<path d="M12.82 9.0603H19.95C19.48 4.58432 15.72 1.0187 11 0.572998V7.33439C11.85 7.62837 12.51 8.25425 12.82 9.0603ZM13 2.9722C15 3.74981 16.6 5.2671 17.42 7.1637H13.99C13.71 6.81283 13.37 6.49041 13 6.22488V2.9722ZM0 10.0086C0 14.9303 3.95 18.9701 9 19.4442V12.6828C7.84 12.2845 7 11.2414 7 10.0086C7 8.77581 7.84 7.73268 9 7.33439V0.572998C3.95 1.04715 0 5.08692 0 10.0086ZM7 2.9722V6.23436C5.77 7.1068 5 8.50081 5 10.0086C5 11.5164 5.77 12.9104 7 13.7923V17.0545C4.04 15.926 2 13.1854 2 10.0086C2 6.83179 4.04 4.0912 7 2.9722ZM11 12.6828V19.4442C15.72 18.9985 19.48 15.4329 19.95 10.9569H12.82C12.51 11.763 11.85 12.3888 11 12.6828ZM13 13.7923C13.37 13.5268 13.71 13.2139 13.99 12.8535H17.42C16.6 14.7501 15 16.2674 13 17.045V13.7923Z" fill="#1E6E76"/>
</svg>
