<svg width="234" height="66" viewBox="0 0 234 66" fill="none" xmlns="http://www.w3.org/2000/svg">
<path d="M33 45H1L33 66V45Z" fill="#947504"/>
<rect width="234" height="46.0562" rx="2" fill="url(#paint0_linear_1_5665)"/>
<path d="M25.0352 13.9656H27.8242L32.4883 26.8093L37.1406 13.9656H39.9414L33.6016 31.0281H31.3633L25.0352 13.9656ZM23.6289 13.9656H26.3594L26.8516 25.7664V31.0281H23.6289V13.9656ZM38.6055 13.9656H41.3477V31.0281H38.125V25.7664L38.6055 13.9656ZM50.1258 31.2625C49.1649 31.2625 48.3016 31.1062 47.536 30.7937C46.7704 30.4812 46.118 30.0476 45.579 29.4929C45.0477 28.9304 44.6376 28.2781 44.3485 27.5359C44.0672 26.7859 43.9266 25.9812 43.9266 25.1218V24.6531C43.9266 23.6765 44.0672 22.7898 44.3485 21.9929C44.6297 21.1882 45.0282 20.4968 45.5438 19.9187C46.0594 19.3406 46.6766 18.8953 47.3954 18.5828C48.1141 18.2703 48.9071 18.114 49.7743 18.114C50.6727 18.114 51.4657 18.2664 52.1532 18.571C52.8407 18.8679 53.4149 19.2898 53.8758 19.8367C54.3368 20.3835 54.6844 21.0398 54.9188 21.8054C55.1532 22.5632 55.2704 23.4031 55.2704 24.325V25.6257H45.3329V23.4929H52.2235V23.2585C52.2079 22.7664 52.1141 22.3171 51.9422 21.9109C51.7704 21.4968 51.5047 21.1687 51.1454 20.9265C50.786 20.6765 50.3212 20.5515 49.7508 20.5515C49.2899 20.5515 48.8876 20.6531 48.5438 20.8562C48.2079 21.0515 47.9266 21.3328 47.7001 21.7C47.4813 22.0593 47.3172 22.489 47.2079 22.989C47.0985 23.489 47.0438 24.0437 47.0438 24.6531V25.1218C47.0438 25.6531 47.1141 26.1453 47.2547 26.5984C47.4032 27.0515 47.618 27.446 47.8993 27.782C48.1883 28.1101 48.5321 28.3679 48.9305 28.5554C49.3368 28.7351 49.7977 28.825 50.3133 28.825C50.9618 28.825 51.5477 28.7 52.0712 28.45C52.6024 28.1921 53.0633 27.8132 53.454 27.3132L55.0126 28.9304C54.7469 29.321 54.3876 29.696 53.9344 30.0554C53.4891 30.4148 52.9501 30.7078 52.3172 30.9343C51.6844 31.1531 50.954 31.2625 50.1258 31.2625ZM60.4626 20.95V31.0281H57.3689V18.3484H60.2868L60.4626 20.95ZM60.0056 24.2312H59.0564C59.0564 23.3484 59.1618 22.5359 59.3728 21.7937C59.5915 21.0515 59.9118 20.407 60.3337 19.8601C60.7556 19.3054 61.2751 18.8757 61.8923 18.571C62.5173 18.2664 63.24 18.114 64.0603 18.114C64.6306 18.114 65.154 18.2 65.6306 18.3718C66.1072 18.5359 66.5173 18.7976 66.8611 19.157C67.2126 19.5085 67.4822 19.9695 67.6697 20.5398C67.8572 21.1023 67.9509 21.7781 67.9509 22.5671V31.0281H64.8572V22.8835C64.8572 22.2898 64.7712 21.825 64.5993 21.489C64.4353 21.1531 64.197 20.9187 63.8845 20.7859C63.572 20.6453 63.197 20.575 62.7595 20.575C62.2751 20.575 61.8572 20.6726 61.5056 20.8679C61.1618 21.0554 60.8767 21.3171 60.6501 21.6531C60.4314 21.989 60.2673 22.3757 60.1579 22.8132C60.0564 23.2507 60.0056 23.7234 60.0056 24.2312ZM67.7165 23.657L66.4392 23.8914C66.447 23.0945 66.5564 22.3484 66.7673 21.6531C66.9782 20.95 67.2868 20.3367 67.6931 19.8132C68.1072 19.282 68.6189 18.8679 69.2282 18.571C69.8454 18.2664 70.5564 18.114 71.3611 18.114C71.9861 18.114 72.5486 18.2039 73.0486 18.3835C73.5564 18.5554 73.99 18.8328 74.3493 19.2156C74.7087 19.5906 74.9822 20.0789 75.1697 20.6804C75.365 21.282 75.4626 22.0164 75.4626 22.8835V31.0281H72.3454V22.8718C72.3454 22.2546 72.2595 21.782 72.0876 21.4539C71.9236 21.1257 71.6853 20.8992 71.3728 20.7742C71.0603 20.6414 70.6931 20.575 70.2712 20.575C69.8415 20.575 69.4665 20.657 69.1462 20.821C68.8337 20.9773 68.5681 21.196 68.3493 21.4773C68.1384 21.7585 67.9782 22.0867 67.8689 22.4617C67.7673 22.8289 67.7165 23.2273 67.7165 23.657ZM78.2643 13.0281H81.3697V28.2273L81.065 31.0281H78.2643V13.0281ZM89.526 24.5593V24.8054C89.526 25.7507 89.4205 26.6179 89.2096 27.407C89.0064 28.196 88.6978 28.8796 88.2838 29.4578C87.8697 30.0281 87.3541 30.4734 86.7369 30.7937C86.1275 31.1062 85.4127 31.2625 84.5924 31.2625C83.8111 31.2625 83.1314 31.1101 82.5533 30.8054C81.983 30.5007 81.5025 30.071 81.1119 29.5164C80.7213 28.9539 80.4088 28.2937 80.1744 27.5359C79.94 26.7703 79.7643 25.9343 79.6471 25.0281V24.3601C79.7643 23.446 79.94 22.6101 80.1744 21.8523C80.4088 21.0945 80.7213 20.4343 81.1119 19.8718C81.5025 19.3093 81.983 18.8757 82.5533 18.571C83.1236 18.2664 83.7955 18.114 84.5689 18.114C85.3971 18.114 86.1197 18.2742 86.7369 18.5945C87.3619 18.907 87.8775 19.3523 88.2838 19.9304C88.6978 20.5007 89.0064 21.1804 89.2096 21.9695C89.4205 22.7507 89.526 23.614 89.526 24.5593ZM86.4205 24.8054V24.5593C86.4205 24.0203 86.3775 23.5125 86.2916 23.0359C86.2057 22.5515 86.065 22.1257 85.8697 21.7585C85.6744 21.3914 85.4088 21.1023 85.0728 20.8914C84.7369 20.6804 84.315 20.575 83.8072 20.575C83.3228 20.575 82.9088 20.657 82.565 20.821C82.2291 20.9851 81.9478 21.2117 81.7213 21.5007C81.5025 21.7898 81.3307 22.1296 81.2057 22.5203C81.0885 22.9109 81.0103 23.3328 80.9713 23.7859V25.614C81.026 26.2156 81.1549 26.7585 81.358 27.2429C81.5611 27.7195 81.8619 28.0984 82.2603 28.3796C82.6666 28.6609 83.19 28.8015 83.8307 28.8015C84.3307 28.8015 84.7486 28.7039 85.0846 28.5085C85.4205 28.3054 85.6861 28.0242 85.8814 27.6648C86.0768 27.2976 86.2135 26.8718 86.2916 26.3875C86.3775 25.9031 86.4205 25.3757 86.4205 24.8054ZM97.5073 31.2625C96.5463 31.2625 95.6831 31.1062 94.9174 30.7937C94.1518 30.4812 93.4995 30.0476 92.9604 29.4929C92.4292 28.9304 92.019 28.2781 91.7299 27.5359C91.4487 26.7859 91.3081 25.9812 91.3081 25.1218V24.6531C91.3081 23.6765 91.4487 22.7898 91.7299 21.9929C92.0112 21.1882 92.4096 20.4968 92.9252 19.9187C93.4409 19.3406 94.0581 18.8953 94.7768 18.5828C95.4956 18.2703 96.2885 18.114 97.1557 18.114C98.0542 18.114 98.8471 18.2664 99.5346 18.571C100.222 18.8679 100.796 19.2898 101.257 19.8367C101.718 20.3835 102.066 21.0398 102.3 21.8054C102.535 22.5632 102.652 23.4031 102.652 24.325V25.6257H92.7143V23.4929H99.6049V23.2585C99.5893 22.7664 99.4956 22.3171 99.3237 21.9109C99.1518 21.4968 98.8862 21.1687 98.5268 20.9265C98.1674 20.6765 97.7026 20.5515 97.1323 20.5515C96.6713 20.5515 96.269 20.6531 95.9252 20.8562C95.5893 21.0515 95.3081 21.3328 95.0815 21.7C94.8627 22.0593 94.6987 22.489 94.5893 22.989C94.4799 23.489 94.4252 24.0437 94.4252 24.6531V25.1218C94.4252 25.6531 94.4956 26.1453 94.6362 26.5984C94.7846 27.0515 94.9995 27.446 95.2807 27.782C95.5698 28.1101 95.9135 28.3679 96.312 28.5554C96.7182 28.7351 97.1792 28.825 97.6948 28.825C98.3432 28.825 98.9292 28.7 99.4526 28.45C99.9838 28.1921 100.445 27.8132 100.835 27.3132L102.394 28.9304C102.128 29.321 101.769 29.696 101.316 30.0554C100.871 30.4148 100.331 30.7078 99.6987 30.9343C99.0659 31.1531 98.3354 31.2625 97.5073 31.2625ZM107.856 20.9382V31.0281H104.762V18.3484H107.692L107.856 20.9382ZM111.711 18.2664L111.664 21.1492C111.493 21.1179 111.297 21.0945 111.078 21.0789C110.868 21.0632 110.668 21.0554 110.481 21.0554C110.004 21.0554 109.586 21.1218 109.227 21.2546C108.868 21.3796 108.567 21.5632 108.325 21.8054C108.09 22.0476 107.91 22.3445 107.785 22.696C107.66 23.0398 107.59 23.4304 107.575 23.8679L106.907 23.7859C106.907 22.9812 106.989 22.2351 107.153 21.5476C107.317 20.8601 107.555 20.2585 107.868 19.7429C108.18 19.2273 108.571 18.8289 109.039 18.5476C109.516 18.2585 110.063 18.114 110.68 18.114C110.852 18.114 111.035 18.1296 111.231 18.1609C111.434 18.1843 111.594 18.2195 111.711 18.2664ZM120.419 27.5593C120.419 27.2937 120.349 27.0554 120.208 26.8445C120.068 26.6335 119.802 26.4421 119.411 26.2703C119.029 26.0906 118.466 25.9226 117.724 25.7664C117.068 25.6257 116.462 25.45 115.907 25.239C115.353 25.0281 114.876 24.7742 114.478 24.4773C114.079 24.1726 113.767 23.8171 113.54 23.4109C113.321 22.9968 113.212 22.5203 113.212 21.9812C113.212 21.4578 113.325 20.9656 113.552 20.5046C113.779 20.0359 114.107 19.6257 114.536 19.2742C114.966 18.9148 115.489 18.6335 116.107 18.4304C116.724 18.2195 117.419 18.114 118.193 18.114C119.271 18.114 120.196 18.2898 120.97 18.6414C121.751 18.9929 122.349 19.4773 122.763 20.0945C123.177 20.7039 123.384 21.3914 123.384 22.157H120.29C120.29 21.821 120.212 21.5164 120.056 21.2429C119.907 20.9695 119.677 20.7507 119.364 20.5867C119.052 20.4148 118.657 20.3289 118.181 20.3289C117.751 20.3289 117.388 20.3992 117.091 20.5398C116.802 20.6804 116.583 20.864 116.435 21.0906C116.286 21.3171 116.212 21.5671 116.212 21.8406C116.212 22.0437 116.251 22.2273 116.329 22.3914C116.415 22.5476 116.552 22.6921 116.739 22.825C116.927 22.9578 117.181 23.0789 117.501 23.1882C117.829 23.2976 118.232 23.4031 118.708 23.5046C119.654 23.6921 120.478 23.9421 121.181 24.2546C121.892 24.5593 122.446 24.9656 122.845 25.4734C123.243 25.9812 123.443 26.6296 123.443 27.4187C123.443 27.9812 123.321 28.4968 123.079 28.9656C122.837 29.4265 122.486 29.8289 122.025 30.1726C121.564 30.5164 121.013 30.7859 120.372 30.9812C119.732 31.1687 119.009 31.2625 118.204 31.2625C117.04 31.2625 116.056 31.0554 115.251 30.6414C114.446 30.2195 113.837 29.6882 113.423 29.0476C113.009 28.3992 112.802 27.7273 112.802 27.032H115.767C115.79 27.5242 115.923 27.9187 116.165 28.2156C116.407 28.5125 116.712 28.7273 117.079 28.8601C117.454 28.9851 117.849 29.0476 118.263 29.0476C118.732 29.0476 119.126 28.9851 119.446 28.8601C119.767 28.7273 120.009 28.5515 120.173 28.3328C120.337 28.1062 120.419 27.8484 120.419 27.5593ZM128.869 13.0281V31.0281H125.764V13.0281H128.869ZM128.377 24.2312H127.463C127.463 23.3484 127.58 22.5359 127.814 21.7937C128.049 21.0515 128.381 20.407 128.811 19.8601C129.24 19.3054 129.752 18.8757 130.346 18.571C130.947 18.2664 131.611 18.114 132.338 18.114C132.963 18.114 133.529 18.2039 134.037 18.3835C134.553 18.5554 134.994 18.8328 135.361 19.2156C135.729 19.5984 136.01 20.0984 136.205 20.7156C136.408 21.325 136.51 22.0671 136.51 22.9421V31.0281H133.393V22.9187C133.393 22.3328 133.307 21.8718 133.135 21.5359C132.963 21.1921 132.717 20.946 132.397 20.7976C132.084 20.6492 131.697 20.575 131.236 20.575C130.736 20.575 130.307 20.6726 129.947 20.8679C129.588 21.0554 129.291 21.3171 129.057 21.6531C128.83 21.989 128.658 22.3757 128.541 22.8132C128.432 23.2507 128.377 23.7234 128.377 24.2312ZM142.558 18.3484V31.0281H139.452V18.3484H142.558ZM139.241 15.032C139.241 14.571 139.397 14.1882 139.71 13.8835C140.03 13.5789 140.46 13.4265 140.999 13.4265C141.538 13.4265 141.964 13.5789 142.276 13.8835C142.597 14.1882 142.757 14.571 142.757 15.032C142.757 15.4851 142.597 15.864 142.276 16.1687C141.964 16.4734 141.538 16.6257 140.999 16.6257C140.46 16.6257 140.03 16.4734 139.71 16.1687C139.397 15.864 139.241 15.4851 139.241 15.032ZM148.64 20.7859V35.9031H145.535V18.3484H148.406L148.64 20.7859ZM156.785 24.5593V24.8054C156.785 25.7273 156.676 26.5828 156.457 27.3718C156.246 28.1531 155.933 28.8367 155.519 29.4226C155.105 30.0007 154.59 30.4539 153.972 30.782C153.363 31.1023 152.66 31.2625 151.863 31.2625C151.082 31.2625 150.402 31.114 149.824 30.8171C149.246 30.5125 148.758 30.0828 148.359 29.5281C147.961 28.9734 147.64 28.3289 147.398 27.5945C147.164 26.8523 146.988 26.0437 146.871 25.1687V24.3835C146.988 23.4539 147.164 22.6101 147.398 21.8523C147.64 21.0867 147.961 20.4265 148.359 19.8718C148.758 19.3093 149.242 18.8757 149.812 18.571C150.39 18.2664 151.066 18.114 151.84 18.114C152.644 18.114 153.351 18.2664 153.961 18.571C154.578 18.8757 155.097 19.3132 155.519 19.8835C155.941 20.4539 156.258 21.1335 156.469 21.9226C156.679 22.7117 156.785 23.5906 156.785 24.5593ZM153.679 24.8054V24.5593C153.679 23.9968 153.629 23.4773 153.527 23.0007C153.426 22.5164 153.269 22.0945 153.058 21.7351C152.847 21.3679 152.574 21.0828 152.238 20.8796C151.902 20.6765 151.496 20.575 151.019 20.575C150.543 20.575 150.133 20.6531 149.789 20.8093C149.445 20.9656 149.164 21.1882 148.945 21.4773C148.726 21.7664 148.554 22.1101 148.429 22.5085C148.312 22.8992 148.234 23.3328 148.195 23.8093V25.7546C148.265 26.3328 148.402 26.8523 148.605 27.3132C148.808 27.7742 149.105 28.1414 149.496 28.4148C149.894 28.6882 150.41 28.825 151.043 28.825C151.519 28.825 151.926 28.7195 152.261 28.5085C152.597 28.2976 152.871 28.0085 153.082 27.6414C153.293 27.2664 153.445 26.8367 153.539 26.3523C153.633 25.8679 153.679 25.3523 153.679 24.8054ZM171.892 24.8054H167.498V22.2742H171.892C172.611 22.2742 173.193 22.157 173.638 21.9226C174.091 21.6804 174.423 21.3523 174.634 20.9382C174.845 20.5164 174.951 20.0359 174.951 19.4968C174.951 18.9734 174.845 18.4851 174.634 18.032C174.423 17.5789 174.091 17.2117 173.638 16.9304C173.193 16.6492 172.611 16.5085 171.892 16.5085H168.552V31.0281H165.33V13.9656H171.892C173.22 13.9656 174.353 14.2039 175.291 14.6804C176.236 15.1492 176.955 15.8015 177.447 16.6375C177.947 17.4656 178.197 18.4109 178.197 19.4734C178.197 20.575 177.947 21.5242 177.447 22.321C176.955 23.1179 176.236 23.7312 175.291 24.1609C174.353 24.5906 173.22 24.8054 171.892 24.8054ZM183.811 13.0281V31.0281H180.705V13.0281H183.811ZM193.784 28.3328V22.4851C193.784 22.0554 193.71 21.6843 193.562 21.3718C193.413 21.0593 193.187 20.8171 192.882 20.6453C192.577 20.4734 192.191 20.3875 191.722 20.3875C191.308 20.3875 190.945 20.4578 190.632 20.5984C190.327 20.739 190.093 20.9382 189.929 21.196C189.765 21.446 189.683 21.7351 189.683 22.0632H186.577C186.577 21.5398 186.702 21.0437 186.952 20.575C187.202 20.0984 187.558 19.6765 188.019 19.3093C188.488 18.9343 189.046 18.6414 189.695 18.4304C190.351 18.2195 191.085 18.114 191.898 18.114C192.859 18.114 193.714 18.2781 194.464 18.6062C195.222 18.9265 195.816 19.4109 196.245 20.0593C196.683 20.7078 196.902 21.5242 196.902 22.5085V28.0398C196.902 28.6726 196.941 29.2156 197.019 29.6687C197.105 30.114 197.23 30.5007 197.394 30.8289V31.0281H194.241C194.093 30.7078 193.98 30.3015 193.902 29.8093C193.823 29.3093 193.784 28.8171 193.784 28.3328ZM194.218 23.3054L194.241 25.1453H192.284C191.8 25.1453 191.374 25.196 191.007 25.2976C190.64 25.3914 190.339 25.532 190.105 25.7195C189.87 25.8992 189.695 26.1179 189.577 26.3757C189.46 26.6257 189.402 26.9109 189.402 27.2312C189.402 27.5437 189.472 27.825 189.613 28.075C189.761 28.325 189.972 28.5242 190.245 28.6726C190.527 28.8132 190.855 28.8835 191.23 28.8835C191.777 28.8835 192.253 28.7742 192.659 28.5554C193.066 28.3289 193.382 28.0554 193.609 27.7351C193.835 27.4148 193.956 27.1101 193.972 26.821L194.863 28.157C194.753 28.4773 194.589 28.8171 194.37 29.1765C194.152 29.5359 193.87 29.8718 193.527 30.1843C193.183 30.4968 192.769 30.7546 192.284 30.9578C191.8 31.1609 191.238 31.2625 190.597 31.2625C189.777 31.2625 189.042 31.0984 188.394 30.7703C187.745 30.4421 187.234 29.9929 186.859 29.4226C186.484 28.8523 186.296 28.2039 186.296 27.4773C186.296 26.8054 186.421 26.2117 186.671 25.696C186.921 25.1804 187.292 24.7468 187.784 24.3953C188.277 24.0359 188.886 23.7664 189.613 23.5867C190.347 23.3992 191.187 23.3054 192.132 23.3054H194.218ZM202.762 21.0554V31.0281H199.668V18.3484H202.574L202.762 21.0554ZM202.27 24.2312H201.356C201.363 23.3093 201.488 22.4734 201.731 21.7234C201.973 20.9734 202.313 20.3289 202.75 19.7898C203.195 19.2507 203.723 18.8367 204.332 18.5476C204.941 18.2585 205.621 18.114 206.371 18.114C206.981 18.114 207.531 18.2 208.024 18.3718C208.516 18.5437 208.938 18.8171 209.289 19.1921C209.649 19.5671 209.922 20.0593 210.109 20.6687C210.305 21.2703 210.402 22.0125 210.402 22.8953V31.0281H207.285V22.8718C207.285 22.2937 207.199 21.8367 207.027 21.5007C206.863 21.1648 206.621 20.9265 206.301 20.7859C205.988 20.6453 205.602 20.575 205.141 20.575C204.664 20.575 204.246 20.6726 203.887 20.8679C203.535 21.0554 203.238 21.3171 202.996 21.6531C202.762 21.989 202.582 22.3757 202.457 22.8132C202.332 23.2507 202.27 23.7234 202.27 24.2312Z" fill="#403201"/>
<defs>
<linearGradient id="paint0_linear_1_5665" x1="0" y1="23.0281" x2="234" y2="23.0281" gradientUnits="userSpaceOnUse">
<stop stop-color="#D4A500"/>
<stop offset="1" stop-color="#FFE074"/>
</linearGradient>
</defs>
</svg>
