<svg width="24" height="24" viewBox="0 0 24 24" fill="none" xmlns="http://www.w3.org/2000/svg">
<path d="M6.5 14.9751V13.9751H4V11.9751H9V9.9751H5C4.71667 9.9751 4.479 9.87943 4.287 9.6881C4.09567 9.4961 4 9.25843 4 8.9751V4.9751C4 4.69176 4.09567 4.4541 4.287 4.2621C4.479 4.07076 4.71667 3.9751 5 3.9751H6.5V2.9751H8.5V3.9751H11V5.9751H6V7.9751H10C10.2833 7.9751 10.521 8.07076 10.713 8.2621C10.9043 8.4541 11 8.69176 11 8.9751V12.9751C11 13.2584 10.9043 13.4961 10.713 13.6881C10.521 13.8794 10.2833 13.9751 10 13.9751H8.5V14.9751H6.5ZM13.95 20.9751L9.7 16.7251L11.1 15.3251L13.95 18.1751L19.6 12.5251L21 13.9251L13.95 20.9751Z" fill="#8E8E93"/>
</svg>
