<svg width="16" height="18" viewBox="0 0 16 18" fill="none" xmlns="http://www.w3.org/2000/svg">
<path d="M13.1328 12.5529C12.4706 12.5529 11.8781 12.8143 11.4251 13.2238L5.21278 9.60793C5.25635 9.40753 5.2912 9.20714 5.2912 8.99803C5.2912 8.78892 5.25635 8.58852 5.21278 8.38813L11.3554 4.80714C11.8259 5.24278 12.4445 5.51288 13.1328 5.51288C14.5791 5.51288 15.7466 4.34535 15.7466 2.89902C15.7466 1.45268 14.5791 0.285156 13.1328 0.285156C11.6864 0.285156 10.5189 1.45268 10.5189 2.89902C10.5189 3.10813 10.5538 3.30852 10.5973 3.50892L4.45476 7.08991C3.98427 6.65427 3.36565 6.38417 2.67734 6.38417C1.231 6.38417 0.0634766 7.55169 0.0634766 8.99803C0.0634766 10.4444 1.231 11.6119 2.67734 11.6119C3.36565 11.6119 3.98427 11.3418 4.45476 10.9061L10.6583 14.5307C10.6148 14.7137 10.5886 14.9054 10.5886 15.097C10.5886 16.4998 11.73 17.6412 13.1328 17.6412C14.5356 17.6412 15.6769 16.4998 15.6769 15.097C15.6769 13.6943 14.5356 12.5529 13.1328 12.5529ZM13.1328 2.02773C13.612 2.02773 14.0041 2.41981 14.0041 2.89902C14.0041 3.37823 13.612 3.7703 13.1328 3.7703C12.6536 3.7703 12.2615 3.37823 12.2615 2.89902C12.2615 2.41981 12.6536 2.02773 13.1328 2.02773ZM2.67734 9.86931C2.19813 9.86931 1.80605 9.47723 1.80605 8.99803C1.80605 8.51882 2.19813 8.12674 2.67734 8.12674C3.15655 8.12674 3.54862 8.51882 3.54862 8.99803C3.54862 9.47723 3.15655 9.86931 2.67734 9.86931ZM13.1328 15.9858C12.6536 15.9858 12.2615 15.5937 12.2615 15.1145C12.2615 14.6353 12.6536 14.2432 13.1328 14.2432C13.612 14.2432 14.0041 14.6353 14.0041 15.1145C14.0041 15.5937 13.612 15.9858 13.1328 15.9858Z" fill="#1D666D"/>
</svg>
