<svg width="61" height="60" viewBox="0 0 61 60" fill="none" xmlns="http://www.w3.org/2000/svg">
<g clip-path="url(#clip0_1_1442)">
<g clip-path="url(#clip1_1_1442)">
<path d="M33.258 24.3574L35.7538 26.8532L32.615 29.992L34.1626 31.5396L37.3014 28.4008L39.7972 30.8966V24.3574H33.258ZM28.8986 24.3574H22.3594V30.8966L24.8552 28.4008L29.9884 33.5232V41.7952H32.1681V32.6295L26.4028 26.8532L28.8986 24.3574Z" fill="#73BBC3"/>
</g>
</g>
<mask id="path-2-inside-1_1_1442" fill="white">
<path d="M41.6345 11.134C45.8505 13.6223 49.1115 17.451 50.8971 22.0093C52.6827 26.5675 52.89 31.5925 51.4859 36.2823C50.0819 40.9722 47.1474 45.0565 43.1507 47.8837C39.154 50.7108 34.3256 52.1177 29.4359 51.8799C24.5461 51.6421 19.877 49.7733 16.1735 46.5716C12.4701 43.37 9.94575 39.0202 9.00342 34.2162C8.06108 29.4123 8.75504 24.4311 10.9746 20.0677C13.1941 15.7042 16.8112 12.21 21.2487 10.1426L21.7561 11.2315C17.5619 13.1856 14.1431 16.4882 12.0453 20.6123C9.94754 24.7365 9.29164 29.4445 10.1823 33.985C11.073 38.5255 13.4588 42.6368 16.9592 45.6628C20.4596 48.6889 24.8726 50.4552 29.4942 50.68C34.1158 50.9047 38.6795 49.575 42.4569 46.9029C46.2344 44.2308 49.008 40.3704 50.3351 35.9378C51.6621 31.5051 51.4662 26.7557 49.7785 22.4475C48.0908 18.1392 45.0087 14.5204 41.0239 12.1686L41.6345 11.134Z"/>
</mask>
<path d="M41.6345 11.134C45.8505 13.6223 49.1115 17.451 50.8971 22.0093C52.6827 26.5675 52.89 31.5925 51.4859 36.2823C50.0819 40.9722 47.1474 45.0565 43.1507 47.8837C39.154 50.7108 34.3256 52.1177 29.4359 51.8799C24.5461 51.6421 19.877 49.7733 16.1735 46.5716C12.4701 43.37 9.94575 39.0202 9.00342 34.2162C8.06108 29.4123 8.75504 24.4311 10.9746 20.0677C13.1941 15.7042 16.8112 12.21 21.2487 10.1426L21.7561 11.2315C17.5619 13.1856 14.1431 16.4882 12.0453 20.6123C9.94754 24.7365 9.29164 29.4445 10.1823 33.985C11.073 38.5255 13.4588 42.6368 16.9592 45.6628C20.4596 48.6889 24.8726 50.4552 29.4942 50.68C34.1158 50.9047 38.6795 49.575 42.4569 46.9029C46.2344 44.2308 49.008 40.3704 50.3351 35.9378C51.6621 31.5051 51.4662 26.7557 49.7785 22.4475C48.0908 18.1392 45.0087 14.5204 41.0239 12.1686L41.6345 11.134Z" stroke="#1D666D" stroke-width="4" mask="url(#path-2-inside-1_1_1442)"/>
<circle cx="40.9629" cy="11.6914" r="1.1348" fill="#73BBC3" stroke="#73BBC3"/>
<circle cx="21.3457" cy="11.0371" r="1.1348" fill="#73BBC3" stroke="#73BBC3"/>
<defs>
<clipPath id="clip0_1_1442">
<rect width="26.1567" height="26.1567" fill="white" transform="translate(17.748 16.5957)"/>
</clipPath>
<clipPath id="clip1_1_1442">
<rect width="26.1567" height="26.1567" fill="white" transform="translate(18 19.998)"/>
</clipPath>
</defs>
</svg>
