<svg width="15" height="12" viewBox="0 0 15 12" fill="none" xmlns="http://www.w3.org/2000/svg">
<path d="M14.5827 0.476562C14.0302 0.785229 12.9216 1.2059 12.27 1.32723C12.2508 1.3319 12.2353 1.3379 12.2168 1.34256C11.641 0.807896 10.8519 0.476562 9.97852 0.476562C8.21831 0.476562 6.79102 1.8199 6.79102 3.47656C6.79102 3.5639 6.78322 3.72456 6.79102 3.8099C4.41597 3.8099 2.60831 2.63923 1.31206 1.14323C1.1711 1.47656 1.10947 2.00323 1.10947 2.4979C1.10947 3.4319 1.8851 4.34923 3.09281 4.9179C2.87039 4.9719 2.62531 5.01056 2.37031 5.01056C1.95877 5.01056 1.52314 4.90856 1.12435 4.59923C1.12435 4.61056 1.12435 4.62123 1.12435 4.63323C1.12435 5.93856 2.59627 6.82723 3.90527 7.07456C3.63964 7.2219 3.10414 7.23656 2.84277 7.23656C2.6586 7.23656 2.00693 7.15723 1.83268 7.12656C2.19677 8.19656 3.51002 8.7979 4.76164 8.81923C3.78272 9.54189 3.10343 9.8099 1.09885 9.8099H0.416016C1.68252 10.5739 3.29539 11.1439 4.91181 11.1439C10.1747 11.1439 13.166 7.36856 13.166 3.8099C13.166 3.75256 13.1646 3.63256 13.1625 3.5119C13.1625 3.4999 13.166 3.48856 13.166 3.47656C13.166 3.45856 13.1603 3.44123 13.1603 3.42323C13.1582 3.33256 13.1561 3.2479 13.154 3.2039C13.7136 2.8239 14.1988 2.3499 14.5827 1.8099C14.0691 2.02456 13.5181 2.16856 12.9393 2.2339C13.5301 1.90056 14.3695 1.1059 14.5827 0.476562ZM11.7493 3.8099C11.7493 6.5299 9.65481 9.40923 5.7526 9.77189C6.28102 9.41923 6.79102 8.91856 6.79102 8.91856C6.79102 8.91856 4.66602 7.1439 4.50664 4.82523C5.23977 5.0359 6.00335 5.14323 6.79102 5.14323H8.20768V3.47656C8.2091 2.55656 9.00102 1.81056 9.97852 1.81056C10.9567 1.81056 11.7493 2.55656 11.7493 3.47723C11.7493 3.47723 11.7493 3.75723 11.7493 3.8099Z" fill="#1E6E76"/>
</svg>
