<svg width="25" height="24" viewBox="0 0 25 24" fill="none" xmlns="http://www.w3.org/2000/svg">
<path d="M12.5 0C5.876 0 0.5 5.376 0.5 12C0.5 18.624 5.876 24 12.5 24C19.124 24 24.5 18.624 24.5 12C24.5 5.376 19.124 0 12.5 0ZM6.92 19.8C8.492 18.672 10.412 18 12.5 18C14.588 18 16.508 18.672 18.08 19.8C16.508 20.928 14.588 21.6 12.5 21.6C10.412 21.6 8.492 20.928 6.92 19.8ZM19.868 18.144C17.84 16.56 15.284 15.6 12.5 15.6C9.716 15.6 7.16 16.56 5.132 18.144C3.74 16.476 2.9 14.34 2.9 12C2.9 6.696 7.196 2.4 12.5 2.4C17.804 2.4 22.1 6.696 22.1 12C22.1 14.34 21.26 16.476 19.868 18.144Z" fill="#1E6E76"/>
<path d="M12.5008 4.80078C10.1848 4.80078 8.30078 6.68478 8.30078 9.00078C8.30078 11.3168 10.1848 13.2008 12.5008 13.2008C14.8168 13.2008 16.7008 11.3168 16.7008 9.00078C16.7008 6.68478 14.8168 4.80078 12.5008 4.80078ZM12.5008 10.8008C11.5048 10.8008 10.7008 9.99678 10.7008 9.00078C10.7008 8.00478 11.5048 7.20078 12.5008 7.20078C13.4968 7.20078 14.3008 8.00478 14.3008 9.00078C14.3008 9.99678 13.4968 10.8008 12.5008 10.8008Z" fill="#1E6E76"/>
</svg>
