<svg width="24" height="24" viewBox="0 0 24 24" fill="none" xmlns="http://www.w3.org/2000/svg">
<path d="M12 12C13.0609 12 14.0783 11.5786 14.8284 10.8284C15.5786 10.0783 16 9.06087 16 8C16 6.93913 15.5786 5.92172 14.8284 5.17157C14.0783 4.42143 13.0609 4 12 4C10.9391 4 9.92172 4.42143 9.17157 5.17157C8.42143 5.92172 8 6.93913 8 8C8 9.06087 8.42143 10.0783 9.17157 10.8284C9.92172 11.5786 10.9391 12 12 12Z" stroke="white" stroke-width="1.5" stroke-linecap="round" stroke-linejoin="round"/>
<path d="M21.9992 17.2809C21.9991 17.8826 21.7612 18.4599 21.3372 18.8869C20.3612 19.8709 19.4142 20.8969 18.4012 21.8449C18.2881 21.9482 18.1395 22.0041 17.9863 22.0009C17.8332 21.9977 17.687 21.9358 17.5782 21.8279L14.6602 18.8879C14.2361 18.4606 13.998 17.8829 13.998 17.2809C13.998 16.6788 14.2361 16.1012 14.6602 15.6739C14.8719 15.4605 15.1237 15.2911 15.4012 15.1756C15.6786 15.06 15.9762 15.0005 16.2767 15.0005C16.5773 15.0005 16.8749 15.06 17.1523 15.1756C17.4298 15.2911 17.6816 15.4605 17.8932 15.6739L17.9992 15.7809L18.1052 15.6739C18.4231 15.3532 18.8292 15.1343 19.2718 15.045C19.7144 14.9557 20.1735 15 20.5909 15.1722C21.0082 15.3444 21.365 15.6369 21.6158 16.0123C21.8665 16.3878 22 16.8294 21.9992 17.2809Z" stroke="white" stroke-width="1.5" stroke-linejoin="round"/>
<path d="M5 19.9995V18.9995C4.99976 17.8185 5.29833 16.6566 5.86794 15.622C6.43754 14.5874 7.25965 13.7137 8.25773 13.0824C9.25582 12.451 10.3974 12.0824 11.5763 12.0109C12.7551 11.9394 13.9329 12.1673 15 12.6735" stroke="white" stroke-width="1.5" stroke-linecap="round" stroke-linejoin="round"/>
</svg>
